<svg width="1440" height="655" viewBox="0 0 1440 655" fill="none" xmlns="http://www.w3.org/2000/svg">
<path d="M32.7273 0H0V32.7M32.7273 0V32.7M32.7273 0H65.4545M32.7273 32.7H0M32.7273 32.7V65.4M32.7273 32.7H65.4545M0 32.7V65.4M32.7273 65.4H0M32.7273 65.4V98.1M32.7273 65.4H65.4545M0 65.4V98.1M32.7273 98.1H0M32.7273 98.1V130.8M32.7273 98.1H65.4545M0 98.1V130.8M32.7273 130.8H0M32.7273 130.8V163.5M32.7273 130.8H65.4545M0 130.8V163.5M32.7273 163.5H0M32.7273 163.5V196.2M32.7273 163.5H65.4545M0 163.5V196.2M32.7273 196.2H0M32.7273 196.2V228.9M32.7273 196.2H65.4545M0 196.2V228.9M32.7273 228.9H0M32.7273 228.9V261.6M32.7273 228.9H65.4545M0 228.9V261.6M32.7273 261.6H0M32.7273 261.6V294.3M32.7273 261.6H65.4545M0 261.6V294.3M32.7273 294.3H0M32.7273 294.3V327M32.7273 294.3H65.4545M0 294.3V327M32.7273 327H0M32.7273 327V359.7M32.7273 327H65.4545M0 327V359.7M32.7273 359.7H0M32.7273 359.7V392.4M32.7273 359.7H65.4545M0 359.7V392.4M32.7273 392.4H0M32.7273 392.4V425.1M32.7273 392.4H65.4545M0 392.4V425.1M32.7273 425.1H0M32.7273 425.1V457.8M32.7273 425.1H65.4545M0 425.1V457.8M32.7273 457.8H0M32.7273 457.8V490.5M32.7273 457.8H65.4545M0 457.8V490.5M32.7273 490.5H0M32.7273 490.5V523.2M32.7273 490.5H65.4545M0 490.5V523.2M32.7273 523.2H0M32.7273 523.2V555.9M32.7273 523.2H65.4545M0 523.2V555.9M32.7273 555.9H0M32.7273 555.9V588.6M32.7273 555.9H65.4545M0 555.9V588.6M32.7273 588.6H0M32.7273 588.6V621.3M32.7273 588.6H65.4545M0 588.6V621.3M32.7273 621.3H0M32.7273 621.3V654M32.7273 621.3H65.4545M0 621.3V654H32.7273M32.7273 654H65.4545M65.4545 0V32.7M65.4545 0H98.1818M65.4545 32.7V65.4M65.4545 32.7H98.1818M65.4545 65.4V98.1M65.4545 65.4H98.1818M65.4545 98.1V130.8M65.4545 98.1H98.1818M65.4545 130.8V163.5M65.4545 130.8H98.1818M65.4545 163.5V196.2M65.4545 163.5H98.1818M65.4545 196.2V228.9M65.4545 196.2H98.1818M65.4545 228.9V261.6M65.4545 228.9H98.1818M65.4545 261.6V294.3M65.4545 261.6H98.1818M65.4545 294.3V327M65.4545 294.3H98.1818M65.4545 327V359.7M65.4545 327H98.1818M65.4545 359.7V392.4M65.4545 359.7H98.1818M65.4545 392.4V425.1M65.4545 392.4H98.1818M65.4545 425.1V457.8M65.4545 425.1H98.1818M65.4545 457.8V490.5M65.4545 457.8H98.1818M65.4545 490.5V523.2M65.4545 490.5H98.1818M65.4545 523.2V555.9M65.4545 523.2H98.1818M65.4545 555.9V588.6M65.4545 555.9H98.1818M65.4545 588.6V621.3M65.4545 588.6H98.1818M65.4545 621.3V654M65.4545 621.3H98.1818M65.4545 654H98.1818M98.1818 0V32.7M98.1818 0H130.909M98.1818 32.7V65.4M98.1818 32.7H130.909M98.1818 65.4V98.1M98.1818 65.4H130.909M98.1818 98.1V130.8M98.1818 98.1H130.909M98.1818 130.8V163.5M98.1818 130.8H130.909M98.1818 163.5V196.2M98.1818 163.5H130.909M98.1818 196.2V228.9M98.1818 196.2H130.909M98.1818 228.9V261.6M98.1818 228.9H130.909M98.1818 261.6V294.3M98.1818 261.6H130.909M98.1818 294.3V327M98.1818 294.3H130.909M98.1818 327V359.7M98.1818 327H130.909M98.1818 359.7V392.4M98.1818 359.7H130.909M98.1818 392.4V425.1M98.1818 392.4H130.909M98.1818 425.1V457.8M98.1818 425.1H130.909M98.1818 457.8V490.5M98.1818 457.8H130.909M98.1818 490.5V523.2M98.1818 490.5H130.909M98.1818 523.2V555.9M98.1818 523.2H130.909M98.1818 555.9V588.6M98.1818 555.9H130.909M98.1818 588.6V621.3M98.1818 588.6H130.909M98.1818 621.3V654M98.1818 621.3H130.909M98.1818 654H130.909M130.909 0V32.7M130.909 0H163.636M130.909 32.7V65.4M130.909 32.7H163.636M130.909 65.4V98.1M130.909 65.4H163.636M130.909 98.1V130.8M130.909 98.1H163.636M130.909 130.8V163.5M130.909 130.8H163.636M130.909 163.5V196.2M130.909 163.5H163.636M130.909 196.2V228.9M130.909 196.2H163.636M130.909 228.9V261.6M130.909 228.9H163.636M130.909 261.6V294.3M130.909 261.6H163.636M130.909 294.3V327M130.909 294.3H163.636M130.909 327V359.7M130.909 327H163.636M130.909 359.7V392.4M130.909 359.7H163.636M130.909 392.4V425.1M130.909 392.4H163.636M130.909 425.1V457.8M130.909 425.1H163.636M130.909 457.8V490.5M130.909 457.8H163.636M130.909 490.5V523.2M130.909 490.5H163.636M130.909 523.2V555.9M130.909 523.2H163.636M130.909 555.9V588.6M130.909 555.9H163.636M130.909 588.6V621.3M130.909 588.6H163.636M130.909 621.3V654M130.909 621.3H163.636M130.909 654H163.636M163.636 0V32.7M163.636 0H196.364M163.636 32.7V65.4M163.636 32.7H196.364M163.636 65.4V98.1M163.636 65.4H196.364M163.636 98.1V130.8M163.636 98.1H196.364M163.636 130.8V163.5M163.636 130.8H196.364M163.636 163.5V196.2M163.636 163.5H196.364M163.636 196.2V228.9M163.636 196.2H196.364M163.636 228.9V261.6M163.636 228.9H196.364M163.636 261.6V294.3M163.636 261.6H196.364M163.636 294.3V327M163.636 294.3H196.364M163.636 327V359.7M163.636 327H196.364M163.636 359.7V392.4M163.636 359.7H196.364M163.636 392.4V425.1M163.636 392.4H196.364M163.636 425.1V457.8M163.636 425.1H196.364M163.636 457.8V490.5M163.636 457.8H196.364M163.636 490.5V523.2M163.636 490.5H196.364M163.636 523.2V555.9M163.636 523.2H196.364M163.636 555.9V588.6M163.636 555.9H196.364M163.636 588.6V621.3M163.636 588.6H196.364M163.636 621.3V654M163.636 621.3H196.364M163.636 654H196.364M196.364 0V32.7M196.364 0H229.091M196.364 32.7V65.4M196.364 32.7H229.091M196.364 65.4V98.1M196.364 65.4H229.091M196.364 98.1V130.8M196.364 98.1H229.091M196.364 130.8V163.5M196.364 130.8H229.091M196.364 163.5V196.2M196.364 163.5H229.091M196.364 196.2V228.9M196.364 196.2H229.091M196.364 228.9V261.6M196.364 228.9H229.091M196.364 261.6V294.3M196.364 261.6H229.091M196.364 294.3V327M196.364 294.3H229.091M196.364 327V359.7M196.364 327H229.091M196.364 359.7V392.4M196.364 359.7H229.091M196.364 392.4V425.1M196.364 392.4H229.091M196.364 425.1V457.8M196.364 425.1H229.091M196.364 457.8V490.5M196.364 457.8H229.091M196.364 490.5V523.2M196.364 490.5H229.091M196.364 523.2V555.9M196.364 523.2H229.091M196.364 555.9V588.6M196.364 555.9H229.091M196.364 588.6V621.3M196.364 588.6H229.091M196.364 621.3V654M196.364 621.3H229.091M196.364 654H229.091M229.091 0V32.7M229.091 0H261.818M229.091 32.7V65.4M229.091 32.7H261.818M229.091 65.4V98.1M229.091 65.4H261.818M229.091 98.1V130.8M229.091 98.1H261.818M229.091 130.8V163.5M229.091 130.8H261.818M229.091 163.5V196.2M229.091 163.5H261.818M229.091 196.2V228.9M229.091 196.2H261.818M229.091 228.9H261.818M229.091 228.9V261.6M229.091 261.6V294.3M229.091 261.6H261.818M229.091 294.3V327M229.091 294.3H261.818M229.091 327V359.7M229.091 327H261.818M229.091 359.7V392.4M229.091 359.7H261.818M229.091 392.4V425.1M229.091 392.4H261.818M229.091 425.1V457.8M229.091 425.1H261.818M229.091 457.8V490.5M229.091 457.8H261.818M229.091 490.5V523.2M229.091 490.5H261.818M229.091 523.2V555.9M229.091 523.2H261.818M229.091 555.9V588.6M229.091 555.9H261.818M229.091 588.6V621.3M229.091 588.6H261.818M229.091 621.3V654M229.091 621.3H261.818M229.091 654H261.818M261.818 0V32.7M261.818 0H294.545M261.818 32.7V65.4M261.818 32.7H294.545M261.818 65.4V98.1M261.818 65.4H294.545M261.818 98.1V130.8M261.818 98.1H294.545M261.818 130.8V163.5M261.818 130.8H294.545M261.818 163.5V196.2M261.818 163.5H294.545M261.818 196.2V228.9M261.818 196.2H294.545M261.818 228.9V261.6M261.818 228.9H294.545M261.818 261.6V294.3M261.818 261.6H294.545M261.818 294.3V327M261.818 294.3H294.545M261.818 327V359.7M261.818 327H294.545M261.818 359.7V392.4M261.818 359.7H294.545M261.818 392.4V425.1M261.818 392.4H294.545M261.818 425.1V457.8M261.818 425.1C261.818 425.1 281.765 425.1 294.545 425.1M261.818 457.8V490.5M261.818 457.8H294.545M261.818 490.5V523.2M261.818 490.5H294.545M261.818 523.2V555.9M261.818 523.2H294.545M261.818 555.9V588.6M261.818 555.9H294.545M261.818 588.6V621.3M261.818 588.6H294.545M261.818 621.3V654M261.818 621.3H294.545M261.818 654H294.545M294.545 0V32.7M294.545 0H327.273M294.545 32.7V65.4M294.545 32.7H327.273M294.545 65.4V98.1M294.545 65.4H327.273M294.545 98.1V130.8M294.545 98.1H327.273M294.545 130.8V163.5M294.545 130.8H327.273M294.545 163.5V196.2M294.545 163.5H327.273M294.545 196.2V228.9M294.545 196.2H327.273M294.545 228.9V261.6M294.545 228.9H327.273M294.545 261.6V294.3M294.545 261.6H327.273M294.545 294.3V327M294.545 294.3H327.273M294.545 327V359.7M294.545 327H327.273M294.545 359.7V392.4M294.545 359.7H327.273M294.545 392.4C294.545 392.4 294.545 412.33 294.545 425.1M294.545 392.4H327.273M294.545 425.1C294.545 437.87 294.545 457.8 294.545 457.8M294.545 425.1C307.326 425.1 327.273 425.1 327.273 425.1M294.545 457.8V490.5M294.545 457.8H327.273M294.545 490.5V523.2M294.545 490.5H327.273M294.545 523.2V555.9M294.545 523.2H327.273M294.545 555.9V588.6M294.545 555.9H327.273M294.545 588.6V621.3M294.545 588.6H327.273M294.545 621.3V654M294.545 621.3H327.273M294.545 654H327.273M327.273 0V32.7M327.273 0H360M327.273 32.7V65.4M327.273 32.7H360M327.273 65.4V98.1M327.273 65.4H360M327.273 98.1V130.8M327.273 98.1H360M327.273 130.8V163.5M327.273 130.8H360M327.273 163.5V196.2M327.273 163.5H360M327.273 196.2V228.9M327.273 196.2H360M327.273 228.9V261.6M327.273 228.9H360M327.273 261.6V294.3M327.273 261.6H360M327.273 294.3V327M327.273 294.3H360M327.273 327V359.7M327.273 327H360M327.273 359.7V392.4M327.273 359.7H360M327.273 392.4V425.1M327.273 392.4H360M327.273 425.1V457.8M327.273 425.1H360M327.273 457.8V490.5M327.273 457.8H360M327.273 490.5V523.2M327.273 490.5H360M327.273 523.2V555.9M327.273 523.2H360M327.273 555.9V588.6M327.273 555.9H360M327.273 588.6V621.3M327.273 588.6H360M327.273 621.3V654M327.273 621.3H360M327.273 654H360M360 0V32.7M360 0H392.727M360 32.7V65.4M360 32.7H392.727M360 65.4V98.1M360 65.4H392.727M360 98.1V130.8M360 98.1H392.727M360 130.8V163.5M360 130.8H1080M360 163.5V196.2M360 163.5H1080M360 196.2V228.9M360 196.2H392.727M360 228.9V261.6M360 228.9H392.727M360 261.6V294.3M360 261.6H392.727M360 294.3V327M360 294.3H392.727M360 327V359.7M360 327H392.727M360 359.7V392.4M360 359.7H392.727M360 392.4V425.1M360 392.4H392.727M360 425.1V457.8M360 425.1H392.727M360 457.8V490.5M360 457.8H392.727M360 490.5V523.2M360 490.5H392.727M360 523.2V555.9M360 523.2H392.727M360 555.9V588.6M360 555.9H392.727M360 588.6V621.3M360 588.6H392.727M360 621.3V654M360 621.3H392.727M360 654H392.727M392.727 0V32.7M392.727 0H425.455M392.727 32.7V65.4M392.727 32.7H425.455M392.727 65.4V98.1M392.727 65.4H425.455M392.727 98.1H425.455M392.727 98.1V196.2M392.727 196.2V228.9M392.727 196.2H425.455M392.727 228.9V261.6M392.727 228.9H425.455M392.727 261.6V294.3M392.727 261.6H425.455M392.727 294.3V327M392.727 294.3H425.455M392.727 327V359.7M392.727 327H425.455M392.727 359.7V392.4M392.727 359.7H425.455M392.727 392.4V425.1M392.727 392.4H425.455M392.727 425.1V457.8M392.727 425.1H425.455M392.727 457.8V490.5M392.727 457.8H425.455M392.727 490.5V523.2M392.727 490.5H425.455M392.727 523.2V555.9M392.727 523.2H425.455M392.727 555.9V588.6M392.727 555.9H425.455M392.727 588.6V621.3M392.727 588.6H425.455M392.727 621.3V654M392.727 621.3H425.455M392.727 654H425.455M425.455 0V32.7M425.455 0H458.182M425.455 32.7V65.4M425.455 32.7H458.182M425.455 65.4V98.1M425.455 65.4H458.182M425.455 98.1H458.182M425.455 98.1V196.2M425.455 196.2V228.9M425.455 196.2H458.182M425.455 228.9V261.6M425.455 228.9H458.182M425.455 261.6V294.3M425.455 261.6H458.182M425.455 294.3V327M425.455 294.3H458.182M425.455 327V359.7M425.455 327H458.182M425.455 359.7V392.4M425.455 359.7H458.182M425.455 392.4V425.1M425.455 392.4H458.182M425.455 425.1V457.8M425.455 425.1H458.182M425.455 457.8V490.5M425.455 457.8H458.182M425.455 490.5V523.2M425.455 490.5H458.182M425.455 523.2V555.9M425.455 523.2H458.182M425.455 555.9V588.6M425.455 555.9H458.182M425.455 588.6V621.3M425.455 588.6H458.182M425.455 621.3V654M425.455 621.3H458.182M425.455 654H458.182M458.182 0V32.7M458.182 0H490.909M458.182 32.7V65.4M458.182 32.7H490.909M458.182 65.4V98.1M458.182 65.4H490.909M458.182 98.1H490.909M458.182 98.1V196.2M458.182 196.2V228.9M458.182 196.2H981.818M458.182 228.9V261.6M458.182 228.9H981.818M458.182 261.6V294.3M458.182 261.6H490.909M458.182 294.3V327M458.182 294.3H490.909M458.182 327V359.7M458.182 327H490.909M458.182 359.7V392.4M458.182 359.7H490.909M458.182 392.4V425.1M458.182 392.4H490.909M458.182 425.1V457.8M458.182 425.1H490.909M458.182 457.8V490.5M458.182 457.8H490.909M458.182 490.5V523.2M458.182 490.5H490.909M458.182 523.2V555.9M458.182 523.2H490.909M458.182 555.9V588.6M458.182 555.9H490.909M458.182 588.6V621.3M458.182 588.6H490.909M458.182 621.3V654M458.182 621.3H490.909M458.182 654H490.909M490.909 0V32.7M490.909 0H523.636M490.909 32.7V65.4M490.909 32.7H523.636M490.909 65.4V98.1M490.909 65.4H523.636M490.909 98.1H523.636M490.909 98.1V261.6M490.909 261.6V294.3M490.909 261.6H523.636M490.909 294.3V327M490.909 294.3H523.636M490.909 327V359.7M490.909 327H523.636M490.909 359.7V392.4M490.909 359.7H523.636M490.909 392.4V425.1M490.909 392.4H523.636M490.909 425.1V457.8M490.909 425.1H523.636M490.909 457.8V490.5M490.909 457.8H523.636M490.909 490.5V523.2M490.909 490.5H523.636M490.909 523.2V555.9M490.909 523.2H523.636M490.909 555.9V588.6M490.909 555.9H523.636M490.909 588.6V621.3M490.909 588.6H523.636M490.909 621.3V654M490.909 621.3H523.636M490.909 654H523.636M523.636 0V32.7M523.636 0H556.364M523.636 32.7V65.4M523.636 32.7H556.364M523.636 65.4V98.1M523.636 65.4H556.364M523.636 98.1H556.364M523.636 98.1V261.6M523.636 261.6V294.3M523.636 261.6H556.364M523.636 294.3V327M523.636 294.3H556.364M523.636 327V359.7M523.636 327H556.364M523.636 359.7V392.4M523.636 359.7H556.364M523.636 392.4V425.1M523.636 392.4H556.364M523.636 425.1V457.8M523.636 425.1H556.364M523.636 457.8V490.5M523.636 457.8H556.364M523.636 490.5V523.2M523.636 490.5H556.364M523.636 523.2V555.9M523.636 523.2H556.364M523.636 555.9V588.6M523.636 555.9H556.364M523.636 588.6V621.3M523.636 588.6H556.364M523.636 621.3V654M523.636 621.3H556.364M523.636 654H556.364M556.364 0V32.7M556.364 0H589.091M556.364 32.7V65.4M556.364 32.7H589.091M556.364 65.4V98.1M556.364 65.4H589.091M556.364 98.1H589.091M556.364 98.1V261.6M556.364 261.6V294.3M556.364 261.6H589.091M556.364 294.3V327M556.364 294.3H589.091M556.364 327V359.7M556.364 327H589.091M556.364 359.7V392.4M556.364 359.7H589.091M556.364 392.4V425.1M556.364 392.4H589.091M556.364 425.1V457.8M556.364 425.1H589.091M556.364 457.8V490.5M556.364 457.8H589.091M556.364 490.5V523.2M556.364 490.5H589.091M556.364 523.2V555.9M556.364 523.2H589.091M556.364 555.9V588.6M556.364 555.9H589.091M556.364 588.6V621.3M556.364 588.6H589.091M556.364 621.3V654M556.364 621.3H589.091M556.364 654H589.091M589.091 0V32.7M589.091 0H621.818M589.091 32.7V65.4M589.091 32.7H621.818M589.091 65.4V98.1M589.091 65.4H621.818M589.091 98.1H621.818M589.091 98.1V261.6M589.091 261.6V294.3M589.091 261.6H621.818M589.091 294.3V327M589.091 294.3H621.818M589.091 327V359.7M589.091 327H621.818M589.091 359.7V392.4M589.091 359.7H621.818M589.091 392.4V425.1M589.091 392.4H621.818M589.091 425.1V457.8M589.091 425.1H621.818M589.091 457.8V490.5M589.091 457.8H621.818M589.091 490.5V523.2M589.091 490.5H621.818M589.091 523.2V555.9M589.091 523.2H621.818M589.091 555.9V588.6M589.091 555.9H621.818M589.091 588.6V621.3M589.091 588.6H621.818M589.091 621.3V654M589.091 621.3H621.818M589.091 654H621.818M621.818 0V32.7M621.818 0H654.545M621.818 32.7V65.4M621.818 32.7H654.545M621.818 65.4V98.1M621.818 65.4H654.545M621.818 98.1H654.545M621.818 98.1V261.6M621.818 261.6V294.3M621.818 261.6H654.545M621.818 294.3V327M621.818 294.3H654.545M621.818 327V359.7M621.818 327H654.545M621.818 359.7V392.4M621.818 359.7H654.545M621.818 392.4V425.1M621.818 392.4H654.545M621.818 425.1V457.8M621.818 425.1H654.545M621.818 457.8V490.5M621.818 457.8H654.545M621.818 490.5V523.2M621.818 490.5H654.545M621.818 523.2V555.9M621.818 523.2H654.545M621.818 555.9V588.6M621.818 555.9H654.545M621.818 588.6V621.3M621.818 588.6H654.545M621.818 621.3V654M621.818 621.3H654.545M621.818 654H654.545M654.545 0V32.7M654.545 0H687.273M654.545 32.7V65.4M654.545 32.7H687.273M654.545 65.4V98.1M654.545 65.4H687.273M654.545 98.1H687.273M654.545 98.1V261.6M654.545 261.6V294.3M654.545 261.6H687.273M654.545 294.3V327M654.545 294.3H687.273M654.545 327V359.7M654.545 327H687.273M654.545 359.7V392.4M654.545 359.7H687.273M654.545 392.4V425.1M654.545 392.4H687.273M654.545 425.1V457.8M654.545 425.1H687.273M654.545 457.8V490.5M654.545 457.8H687.273M654.545 490.5V523.2M654.545 490.5H687.273M654.545 523.2V555.9M654.545 523.2H687.273M654.545 555.9V588.6M654.545 555.9H687.273M654.545 588.6V621.3M654.545 588.6H687.273M654.545 621.3V654M654.545 621.3H687.273M654.545 654H687.273M687.273 0V32.7M687.273 0H720M687.273 32.7H720M687.273 32.7V65.4M687.273 65.4V98.1M687.273 65.4H720M687.273 98.1H720M687.273 98.1V261.6M687.273 261.6V294.3M687.273 261.6H720M687.273 294.3V327M687.273 294.3H720M687.273 327V359.7M687.273 327H720M687.273 359.7V392.4M687.273 359.7H720M687.273 392.4V425.1M687.273 392.4H720M687.273 425.1V457.8M687.273 425.1H720M687.273 457.8V490.5M687.273 457.8H720M687.273 490.5V523.2M687.273 490.5H720M687.273 523.2V555.9M687.273 523.2H720M687.273 555.9V588.6M687.273 555.9H720M687.273 588.6V621.3M687.273 588.6H720M687.273 621.3V654M687.273 621.3H720M687.273 654H720M720 0V32.7M720 0H752.727M720 32.7H752.727M720 32.7V65.4M720 65.4V98.1M720 65.4H752.727M720 98.1H752.727M720 98.1V261.6M720 261.6V294.3M720 261.6H752.727M720 294.3V327M720 294.3H752.727M720 327V359.7M720 327H752.727M720 359.7V392.4M720 359.7H752.727M720 392.4V425.1M720 392.4H752.727M720 425.1V457.8M720 425.1H752.727M720 457.8V490.5M720 457.8H752.727M720 490.5V523.2M720 490.5H752.727M720 523.2V555.9M720 523.2H752.727M720 555.9V588.6M720 555.9H752.727M720 588.6V621.3M720 588.6H752.727M720 621.3V654M720 621.3H752.727M720 654H752.727M752.727 0V32.7M752.727 0H785.455M752.727 32.7H785.455M752.727 32.7V65.4M752.727 65.4V98.1M752.727 65.4H785.455M752.727 98.1H785.455M752.727 98.1V261.6M752.727 261.6V294.3M752.727 261.6H785.455M752.727 294.3V327M752.727 294.3H785.455M752.727 327V359.7M752.727 327H785.455M752.727 359.7V392.4M752.727 359.7H785.455M752.727 392.4V425.1M752.727 392.4H785.455M752.727 425.1V457.8M752.727 425.1H785.455M752.727 457.8V490.5M752.727 457.8H785.455M752.727 490.5V523.2M752.727 490.5H785.455M752.727 523.2V555.9M752.727 523.2H785.455M752.727 555.9V588.6M752.727 555.9H785.455M752.727 588.6V621.3M752.727 588.6H785.455M752.727 621.3V654M752.727 621.3H785.455M752.727 654H785.455M785.455 0V32.7M785.455 0H818.182M785.455 32.7H818.182M785.455 32.7V65.4M785.455 65.4V98.1M785.455 65.4H818.182M785.455 98.1H818.182M785.455 98.1V261.6M785.455 261.6V294.3M785.455 261.6H818.182M785.455 294.3V327M785.455 294.3H818.182M785.455 327V359.7M785.455 327H818.182M785.455 359.7V392.4M785.455 359.7H818.182M785.455 392.4V425.1M785.455 392.4H818.182M785.455 425.1V457.8M785.455 425.1H818.182M785.455 457.8V490.5M785.455 457.8H818.182M785.455 490.5V523.2M785.455 490.5H818.182M785.455 523.2V555.9M785.455 523.2H818.182M785.455 555.9V588.6M785.455 555.9H818.182M785.455 588.6V621.3M785.455 588.6H818.182M785.455 621.3V654M785.455 621.3H818.182M785.455 654H818.182M818.182 0V32.7M818.182 0H850.909M818.182 32.7V65.4M818.182 32.7H850.909M818.182 65.4V98.1M818.182 65.4H850.909M818.182 98.1H850.909M818.182 98.1V261.6M818.182 261.6V294.3M818.182 261.6H850.909M818.182 294.3V327M818.182 294.3H850.909M818.182 327V359.7M818.182 327H850.909M818.182 359.7V392.4M818.182 359.7H850.909M818.182 392.4V425.1M818.182 392.4H850.909M818.182 425.1V457.8M818.182 425.1H850.909M818.182 457.8V490.5M818.182 457.8H850.909M818.182 490.5V523.2M818.182 490.5H850.909M818.182 523.2V555.9M818.182 523.2H850.909M818.182 555.9V588.6M818.182 555.9H850.909M818.182 588.6V621.3M818.182 588.6H850.909M818.182 621.3V654M818.182 621.3H850.909M818.182 654H850.909M850.909 0V32.7M850.909 0H883.636M850.909 32.7V65.4M850.909 32.7H883.636M850.909 65.4V98.1M850.909 65.4H883.636M850.909 98.1H883.636M850.909 98.1V261.6M850.909 261.6V294.3M850.909 261.6H883.636M850.909 294.3V327M850.909 294.3H883.636M850.909 327V359.7M850.909 327H883.636M850.909 359.7V392.4M850.909 359.7H883.636M850.909 392.4V425.1M850.909 392.4H883.636M850.909 425.1V457.8M850.909 425.1H883.636M850.909 457.8V490.5M850.909 457.8H883.636M850.909 490.5V523.2M850.909 490.5H883.636M850.909 523.2V555.9M850.909 523.2H883.636M850.909 555.9V588.6M850.909 555.9H883.636M850.909 588.6V621.3M850.909 588.6H883.636M850.909 621.3V654M850.909 621.3H883.636M850.909 654H883.636M883.636 0V32.7M883.636 0H916.364M883.636 32.7V65.4M883.636 32.7H916.364M883.636 65.4V98.1M883.636 65.4H916.364M883.636 98.1H916.364M883.636 98.1V261.6M883.636 261.6V294.3M883.636 261.6H916.364M883.636 294.3V327M883.636 294.3H916.364M883.636 327V359.7M883.636 327H916.364M883.636 359.7V392.4M883.636 359.7H916.364M883.636 392.4V425.1M883.636 392.4H916.364M883.636 425.1V457.8M883.636 425.1H916.364M883.636 457.8V490.5M883.636 457.8H916.364M883.636 490.5V523.2M883.636 490.5H916.364M883.636 523.2V555.9M883.636 523.2H916.364M883.636 555.9V588.6M883.636 555.9H916.364M883.636 588.6V621.3M883.636 588.6H916.364M883.636 621.3V654M883.636 621.3H916.364M883.636 654H916.364M916.364 0V32.7M916.364 0H949.091M916.364 32.7V65.4M916.364 32.7H949.091M916.364 65.4V98.1M916.364 65.4H949.091M916.364 98.1H949.091M916.364 98.1V261.6M916.364 261.6V294.3M916.364 261.6H949.091M916.364 294.3V327M916.364 294.3H949.091M916.364 327V359.7M916.364 327H949.091M916.364 359.7V392.4M916.364 359.7H949.091M916.364 392.4V425.1M916.364 392.4H949.091M916.364 425.1V457.8M916.364 425.1H949.091M916.364 457.8V490.5M916.364 457.8H949.091M916.364 490.5V523.2M916.364 490.5H949.091M916.364 523.2V555.9M916.364 523.2H949.091M916.364 555.9V588.6M916.364 555.9H949.091M916.364 588.6V621.3M916.364 588.6H949.091M916.364 621.3V654M916.364 621.3H949.091M916.364 654H949.091M949.091 0V32.7M949.091 0H981.818M949.091 32.7V65.4M949.091 32.7H981.818M949.091 65.4V98.1M949.091 65.4H981.818M949.091 98.1H981.818M949.091 98.1V261.6M949.091 261.6V294.3M949.091 261.6H981.818M949.091 294.3V327M949.091 294.3H981.818M949.091 327V359.7M949.091 327H981.818M949.091 359.7V392.4M949.091 359.7H981.818M949.091 392.4V425.1M949.091 392.4H981.818M949.091 425.1V457.8M949.091 425.1H981.818M949.091 457.8V490.5M949.091 457.8H981.818M949.091 490.5V523.2M949.091 490.5H981.818M949.091 523.2V555.9M949.091 523.2H981.818M949.091 555.9V588.6M949.091 555.9H981.818M949.091 588.6V621.3M949.091 588.6H981.818M949.091 621.3V654M949.091 621.3H981.818M949.091 654H981.818M981.818 0V32.7M981.818 0H1014.55M981.818 32.7V65.4M981.818 32.7H1014.55M981.818 65.4V98.1M981.818 65.4H1014.55M981.818 98.1H1014.55M981.818 98.1V196.2M981.818 196.2V228.9M981.818 196.2H1014.55M981.818 228.9V261.6M981.818 228.9H1014.55M981.818 261.6V294.3M981.818 261.6H1014.55M981.818 294.3V327M981.818 294.3H1014.55M981.818 327V359.7M981.818 327H1014.55M981.818 359.7V392.4M981.818 359.7H1014.55M981.818 392.4V425.1M981.818 392.4H1014.55M981.818 425.1V457.8M981.818 425.1H1014.55M981.818 457.8V490.5M981.818 457.8H1014.55M981.818 490.5V523.2M981.818 490.5H1014.55M981.818 523.2V555.9M981.818 523.2H1014.55M981.818 555.9V588.6M981.818 555.9H1014.55M981.818 588.6V621.3M981.818 588.6H1014.55M981.818 621.3V654M981.818 621.3H1014.55M981.818 654H1014.55M1014.55 0V32.7M1014.55 0H1047.27M1014.55 32.7V65.4M1014.55 32.7H1047.27M1014.55 65.4V98.1M1014.55 65.4H1047.27M1014.55 98.1H1047.27M1014.55 98.1V196.2M1014.55 196.2V228.9M1014.55 196.2H1047.27M1014.55 228.9V261.6M1014.55 228.9H1047.27M1014.55 261.6V294.3M1014.55 261.6H1047.27M1014.55 294.3V327M1014.55 294.3H1047.27M1014.55 327V359.7M1014.55 327H1047.27M1014.55 359.7V392.4M1014.55 359.7H1047.27M1014.55 392.4V425.1M1014.55 392.4H1047.27M1014.55 425.1V457.8M1014.55 425.1H1047.27M1014.55 457.8V490.5M1014.55 457.8H1047.27M1014.55 490.5V523.2M1014.55 490.5H1047.27M1014.55 523.2V555.9M1014.55 523.2H1047.27M1014.55 555.9V588.6M1014.55 555.9H1047.27M1014.55 588.6V621.3M1014.55 588.6H1047.27M1014.55 621.3V654M1014.55 621.3H1047.27M1014.55 654H1047.27M1047.27 0V32.7M1047.27 0H1080M1047.27 32.7V65.4M1047.27 32.7H1080M1047.27 65.4V98.1M1047.27 65.4H1080M1047.27 98.1H1080M1047.27 98.1V196.2M1047.27 196.2V228.9M1047.27 196.2H1080M1047.27 228.9V261.6M1047.27 228.9H1080M1047.27 261.6V294.3M1047.27 261.6H1080M1047.27 294.3V327M1047.27 294.3H1080M1047.27 327V359.7M1047.27 327H1080M1047.27 359.7V392.4M1047.27 359.7H1080M1047.27 392.4V425.1M1047.27 392.4H1080M1047.27 425.1V457.8M1047.27 425.1H1080M1047.27 457.8V490.5M1047.27 457.8H1080M1047.27 490.5V523.2M1047.27 490.5H1080M1047.27 523.2V555.9M1047.27 523.2H1080M1047.27 555.9V588.6M1047.27 555.9H1080M1047.27 588.6V621.3M1047.27 588.6H1080M1047.27 621.3V654M1047.27 621.3H1080M1047.27 654H1080M1080 0V32.7M1080 0H1112.73M1080 32.7V65.4M1080 32.7H1112.73M1080 65.4V98.1M1080 65.4H1112.73M1080 98.1V130.8M1080 98.1H1112.73M1080 130.8V163.5M1080 130.8H1112.73M1080 163.5V196.2M1080 163.5H1112.73M1080 196.2V228.9M1080 196.2H1112.73M1080 228.9V261.6M1080 228.9H1112.73M1080 261.6V294.3M1080 261.6H1112.73M1080 294.3V327M1080 294.3H1112.73M1080 327V359.7M1080 327H1112.73M1080 359.7V392.4M1080 359.7H1112.73M1080 392.4V425.1M1080 392.4H1112.73M1080 425.1V457.8M1080 425.1H1112.73M1080 457.8V490.5M1080 457.8H1112.73M1080 490.5V523.2M1080 490.5H1112.73M1080 523.2V555.9M1080 523.2H1112.73M1080 555.9V588.6M1080 555.9H1112.73M1080 588.6V621.3M1080 588.6H1112.73M1080 621.3V654M1080 621.3H1112.73M1080 654H1112.73M1112.73 0V32.7M1112.73 0H1145.45M1112.73 32.7V65.4M1112.73 32.7H1145.45M1112.73 65.4V98.1M1112.73 65.4H1145.45M1112.73 98.1V130.8M1112.73 98.1H1145.45M1112.73 130.8V163.5M1112.73 130.8H1145.45M1112.73 163.5V196.2M1112.73 163.5H1145.45M1112.73 196.2V228.9M1112.73 196.2H1145.45M1112.73 228.9V261.6M1112.73 228.9H1145.45M1112.73 261.6V294.3M1112.73 261.6H1145.45M1112.73 294.3V327M1112.73 294.3H1145.45M1112.73 327V359.7M1112.73 327H1145.45M1112.73 359.7V392.4M1112.73 359.7H1145.45M1112.73 392.4V425.1M1112.73 392.4H1145.45M1112.73 425.1V457.8M1112.73 425.1H1145.45M1112.73 457.8V490.5M1112.73 457.8H1145.45M1112.73 490.5V523.2M1112.73 490.5H1145.45M1112.73 523.2V555.9M1112.73 523.2H1145.45M1112.73 555.9V588.6M1112.73 555.9H1145.45M1112.73 588.6V621.3M1112.73 588.6H1145.45M1112.73 621.3V654M1112.73 621.3H1145.45M1112.73 654H1145.45M1145.45 0V32.7M1145.45 0H1178.18M1145.45 32.7V65.4M1145.45 32.7H1178.18M1145.45 65.4V98.1M1145.45 65.4H1178.18M1145.45 98.1V130.8M1145.45 98.1H1178.18M1145.45 130.8V163.5M1145.45 130.8H1178.18M1145.45 163.5V196.2M1145.45 163.5H1178.18M1145.45 196.2V228.9M1145.45 196.2H1178.18M1145.45 228.9V261.6M1145.45 228.9H1178.18M1145.45 261.6V294.3M1145.45 261.6H1178.18M1145.45 294.3V327M1145.45 294.3H1178.18M1145.45 327V359.7M1145.45 327H1178.18M1145.45 359.7V392.4M1145.45 359.7H1178.18M1145.45 392.4V425.1M1145.45 392.4H1178.18M1145.45 425.1V457.8M1145.45 425.1H1178.18M1145.45 457.8V490.5M1145.45 457.8H1178.18M1145.45 490.5V523.2M1145.45 490.5H1178.18M1145.45 523.2V555.9M1145.45 523.2H1178.18M1145.45 555.9V588.6M1145.45 555.9H1178.18M1145.45 588.6V621.3M1145.45 588.6H1178.18M1145.45 621.3V654M1145.45 621.3H1178.18M1145.45 654H1178.18M1178.18 0V32.7M1178.18 0H1210.91M1178.18 32.7V65.4M1178.18 32.7H1210.91M1178.18 65.4V98.1M1178.18 65.4H1210.91M1178.18 98.1V130.8M1178.18 98.1H1210.91M1178.18 130.8V163.5M1178.18 130.8H1210.91M1178.18 163.5V196.2M1178.18 163.5H1210.91M1178.18 196.2V228.9M1178.18 196.2H1210.91M1178.18 228.9V261.6M1178.18 228.9H1210.91M1178.18 261.6V294.3M1178.18 261.6H1210.91M1178.18 294.3V327M1178.18 294.3H1210.91M1178.18 327V359.7M1178.18 327H1210.91M1178.18 359.7V392.4M1178.18 359.7H1210.91M1178.18 392.4V425.1M1178.18 392.4H1210.91M1178.18 425.1V457.8M1178.18 425.1H1210.91M1178.18 457.8V490.5M1178.18 457.8H1210.91M1178.18 490.5V523.2M1178.18 490.5H1210.91M1178.18 523.2V555.9M1178.18 523.2H1210.91M1178.18 555.9V588.6M1178.18 555.9H1210.91M1178.18 588.6V621.3M1178.18 588.6H1210.91M1178.18 621.3V654M1178.18 621.3H1210.91M1178.18 654H1210.91M1210.91 0V32.7M1210.91 0H1243.64M1210.91 32.7V65.4M1210.91 32.7H1243.64M1210.91 65.4V98.1M1210.91 65.4H1243.64M1210.91 98.1V130.8M1210.91 98.1H1243.64M1210.91 130.8V163.5M1210.91 130.8H1243.64M1210.91 163.5V196.2M1210.91 163.5H1243.64M1210.91 196.2V228.9M1210.91 196.2H1243.64M1210.91 228.9H1243.64M1210.91 228.9V261.6M1210.91 261.6V294.3M1210.91 261.6H1243.64M1210.91 294.3V327M1210.91 294.3H1243.64M1210.91 327V359.7M1210.91 327H1243.64M1210.91 359.7V392.4M1210.91 359.7H1243.64M1210.91 392.4V425.1M1210.91 392.4H1243.64M1210.91 425.1V457.8M1210.91 425.1H1243.64M1210.91 457.8V490.5M1210.91 457.8H1243.64M1210.91 490.5V523.2M1210.91 490.5H1243.64M1210.91 523.2V555.9M1210.91 523.2H1243.64M1210.91 555.9V588.6M1210.91 555.9H1243.64M1210.91 588.6V621.3M1210.91 588.6H1243.64M1210.91 621.3V654M1210.91 621.3H1243.64M1210.91 654H1243.64M1243.64 0V32.7M1243.64 0H1276.36M1243.64 32.7V65.4M1243.64 32.7H1276.36M1243.64 65.4V98.1M1243.64 65.4H1276.36M1243.64 98.1V130.8M1243.64 98.1H1276.36M1243.64 130.8V163.5M1243.64 130.8H1276.36M1243.64 163.5V196.2M1243.64 163.5H1276.36M1243.64 196.2V228.9M1243.64 196.2H1276.36M1243.64 228.9V261.6M1243.64 228.9H1276.36M1243.64 261.6V294.3M1243.64 261.6H1276.36M1243.64 294.3V327M1243.64 294.3H1276.36M1243.64 327V359.7M1243.64 327H1276.36M1243.64 359.7V392.4M1243.64 359.7H1276.36M1243.64 392.4V425.1M1243.64 392.4H1276.36M1243.64 425.1V457.8M1243.64 425.1H1276.36M1243.64 457.8V490.5M1243.64 457.8H1276.36M1243.64 490.5V523.2M1243.64 490.5H1276.36M1243.64 523.2V555.9M1243.64 523.2H1276.36M1243.64 555.9V588.6M1243.64 555.9H1276.36M1243.64 588.6V621.3M1243.64 588.6H1276.36M1243.64 621.3V654M1243.64 621.3H1276.36M1243.64 654H1276.36M1276.36 0V32.7M1276.36 0H1309.09M1276.36 32.7V65.4M1276.36 32.7H1309.09M1276.36 65.4V98.1M1276.36 65.4H1309.09M1276.36 98.1V130.8M1276.36 98.1H1309.09M1276.36 130.8V163.5M1276.36 130.8H1309.09M1276.36 163.5V196.2M1276.36 163.5H1309.09M1276.36 196.2V228.9M1276.36 196.2H1309.09M1276.36 228.9V261.6M1276.36 228.9H1309.09M1276.36 261.6V294.3M1276.36 261.6H1309.09M1276.36 294.3V327M1276.36 294.3H1309.09M1276.36 327V359.7M1276.36 327H1309.09M1276.36 359.7V392.4M1276.36 359.7H1309.09M1276.36 392.4V425.1M1276.36 392.4H1309.09M1276.36 425.1V457.8M1276.36 425.1H1309.09M1276.36 457.8V490.5M1276.36 457.8H1309.09M1276.36 490.5V523.2M1276.36 490.5H1309.09M1276.36 523.2V555.9M1276.36 523.2H1309.09M1276.36 555.9V588.6M1276.36 555.9H1309.09M1276.36 588.6V621.3M1276.36 588.6H1309.09M1276.36 621.3V654M1276.36 621.3H1309.09M1276.36 654H1309.09M1309.09 0V32.7M1309.09 0H1341.82M1309.09 32.7V65.4M1309.09 32.7H1341.82M1309.09 65.4V98.1M1309.09 65.4H1341.82M1309.09 98.1V130.8M1309.09 98.1H1341.82M1309.09 130.8V163.5M1309.09 130.8H1341.82M1309.09 163.5V196.2M1309.09 163.5H1341.82M1309.09 196.2V228.9M1309.09 196.2H1341.82M1309.09 228.9V261.6M1309.09 228.9H1341.82M1309.09 261.6V294.3M1309.09 261.6H1341.82M1309.09 294.3V327M1309.09 294.3H1341.82M1309.09 327V359.7M1309.09 327H1341.82M1309.09 359.7V392.4M1309.09 359.7H1341.82M1309.09 392.4V425.1M1309.09 392.4H1341.82M1309.09 425.1V457.8M1309.09 425.1H1341.82M1309.09 457.8V490.5M1309.09 457.8H1341.82M1309.09 490.5V523.2M1309.09 490.5H1341.82M1309.09 523.2V555.9M1309.09 523.2H1341.82M1309.09 555.9V588.6M1309.09 555.9H1341.82M1309.09 588.6V621.3M1309.09 588.6H1341.82M1309.09 621.3V654M1309.09 621.3H1341.82M1309.09 654H1341.82M1341.82 0V32.7M1341.82 0H1374.55M1341.82 32.7V65.4M1341.82 32.7H1374.55M1341.82 65.4V98.1M1341.82 65.4H1374.55M1341.82 98.1V130.8M1341.82 98.1H1374.55M1341.82 130.8V163.5M1341.82 130.8H1374.55M1341.82 163.5V196.2M1341.82 163.5H1374.55M1341.82 196.2V228.9M1341.82 196.2H1374.55M1341.82 228.9V261.6M1341.82 228.9H1374.55M1341.82 261.6V294.3M1341.82 261.6H1374.55M1341.82 294.3V327M1341.82 294.3H1374.55M1341.82 327V359.7M1341.82 327H1374.55M1341.82 359.7V392.4M1341.82 359.7H1374.55M1341.82 392.4V425.1M1341.82 392.4H1374.55M1341.82 425.1V457.8M1341.82 425.1H1374.55M1341.82 457.8V490.5M1341.82 457.8H1374.55M1341.82 490.5V523.2M1341.82 490.5H1374.55M1341.82 523.2V555.9M1341.82 523.2H1374.55M1341.82 555.9V588.6M1341.82 555.9H1374.55M1341.82 588.6V621.3M1341.82 588.6H1374.55M1341.82 621.3V654M1341.82 621.3H1374.55M1341.82 654H1374.55M1374.55 0V32.7M1374.55 0H1407.27M1374.55 32.7V65.4M1374.55 32.7H1407.27M1374.55 65.4V98.1M1374.55 65.4H1407.27M1374.55 98.1V130.8M1374.55 98.1H1407.27M1374.55 130.8V163.5M1374.55 130.8H1407.27M1374.55 163.5V196.2M1374.55 163.5H1407.27M1374.55 196.2V228.9M1374.55 196.2H1407.27M1374.55 228.9V261.6M1374.55 228.9H1407.27M1374.55 261.6V294.3M1374.55 261.6H1407.27M1374.55 294.3V327M1374.55 294.3H1407.27M1374.55 327V359.7M1374.55 327H1407.27M1374.55 359.7V392.4M1374.55 359.7H1407.27M1374.55 392.4V425.1M1374.55 392.4H1407.27M1374.55 425.1V457.8M1374.55 425.1H1407.27M1374.55 457.8V490.5M1374.55 457.8H1407.27M1374.55 490.5V523.2M1374.55 490.5H1407.27M1374.55 523.2V555.9M1374.55 523.2H1407.27M1374.55 555.9V588.6M1374.55 555.9H1407.27M1374.55 588.6V621.3M1374.55 588.6H1407.27M1374.55 621.3V654M1374.55 621.3H1407.27M1374.55 654H1407.27M1407.27 0V32.7M1407.27 0H1440V32.7M1407.27 32.7V65.4M1407.27 32.7H1440M1407.27 65.4V98.1M1407.27 65.4H1440M1407.27 98.1V130.8M1407.27 98.1H1440M1407.27 130.8V163.5M1407.27 130.8H1440M1407.27 163.5V196.2M1407.27 163.5H1440M1407.27 196.2V228.9M1407.27 196.2H1440M1407.27 228.9V261.6M1407.27 228.9H1440M1407.27 261.6V294.3M1407.27 261.6H1440M1407.27 294.3V327M1407.27 294.3H1440M1407.27 327V359.7M1407.27 327H1440M1407.27 359.7V392.4M1407.27 359.7H1440M1407.27 392.4V425.1M1407.27 392.4H1440M1407.27 425.1V457.8M1407.27 425.1H1440M1407.27 457.8V490.5M1407.27 457.8H1440M1407.27 490.5V523.2M1407.27 490.5H1440M1407.27 523.2V555.9M1407.27 523.2H1440M1407.27 555.9V588.6M1407.27 555.9H1440M1407.27 588.6V621.3M1407.27 588.6H1440M1407.27 621.3V654M1407.27 621.3H1440M1407.27 654H1440V621.3M1440 32.7V65.4M1440 65.4V98.1M1440 98.1V130.8M1440 130.8V163.5M1440 163.5V196.2M1440 196.2V228.9M1440 228.9V261.6M1440 261.6V294.3M1440 294.3V327M1440 327V359.7M1440 359.7V392.4M1440 392.4V425.1M1440 425.1V457.8M1440 457.8V490.5M1440 490.5V523.2M1440 523.2V555.9M1440 555.9V588.6M1440 588.6V621.3" stroke="url(#paint0_linear_22630_4)"/>
<defs>
<linearGradient id="paint0_linear_22630_4" x1="720" y1="0" x2="720" y2="654" gradientUnits="userSpaceOnUse">
<stop stop-color="#F0F0F9"/>
<stop offset="1" stop-color="#E2E2EC" stop-opacity="0"/>
</linearGradient>
</defs>
</svg>
