<svg width="154" height="30" viewBox="0 0 154 30" fill="none" xmlns="http://www.w3.org/2000/svg">
<path d="M50.1936 19.6417C50.4157 18.3945 50.6036 17.3096 50.7574 16.387C50.9282 15.4473 51.0649 14.6357 51.1674 13.9523C51.287 13.2689 51.381 12.6795 51.4493 12.184C51.5347 11.6885 51.6031 11.2529 51.6543 10.877C51.7227 10.484 51.7739 10.1423 51.8081 9.85189C51.8594 9.54436 51.9106 9.22828 51.9619 8.90367C51.996 8.71573 52.0815 8.57051 52.2181 8.468C52.3719 8.36548 52.6538 8.31423 53.0639 8.31423C53.286 8.31423 53.5935 8.33131 53.9865 8.36548C54.3965 8.38257 54.798 8.44237 55.191 8.54488C55.5839 8.64739 55.9171 8.8097 56.1904 9.03181C56.4809 9.23683 56.6261 9.52728 56.6261 9.90315C56.6261 10.1765 56.5492 10.5866 56.3955 11.1333C56.2417 11.6629 56.0452 12.278 55.806 12.9785C55.5668 13.679 55.2935 14.4307 54.9859 15.2337C54.6784 16.0196 54.3623 16.8055 54.0377 17.5915C53.7302 18.3603 53.4312 19.095 53.1407 19.7954C52.8503 20.4959 52.6026 21.1025 52.3975 21.615C52.2609 21.9226 52.1242 22.1276 51.9875 22.2301C51.8679 22.3326 51.6458 22.3838 51.3212 22.3838H49.8091C49.3308 22.3838 48.9378 22.3241 48.6303 22.2045C48.3227 22.0849 48.075 21.9226 47.8871 21.7175C47.6991 21.5125 47.5539 21.2819 47.4514 21.0256C47.3489 20.7522 47.272 20.4618 47.2207 20.1542C47.0499 19.2829 46.8705 18.1126 46.6826 16.6432C46.4946 15.1739 46.3238 13.4398 46.17 11.4408C46.0846 11.8167 45.9821 12.3207 45.8625 12.9528C45.76 13.585 45.6404 14.2684 45.5037 15.0031C45.3841 15.7377 45.256 16.4895 45.1193 17.2583C44.9826 18.0271 44.8544 18.7447 44.7349 19.411C44.6153 20.0603 44.5042 20.6241 44.4017 21.1025C44.2992 21.5638 44.2138 21.8628 44.1454 21.9994C44.06 22.1703 43.9489 22.2813 43.8123 22.3326C43.6927 22.3668 43.5133 22.3838 43.2741 22.3838H41.4801C41.0359 22.3838 40.6515 22.3241 40.3269 22.2045C40.0194 22.0678 39.746 21.8969 39.5068 21.6919C39.2847 21.4869 39.0968 21.2562 38.943 21C38.8063 20.7266 38.7038 20.4447 38.6355 20.1542C37.6958 16.498 36.9867 13.7388 36.5084 11.8765C36.0471 10.0142 35.8164 9.01472 35.8164 8.87804C35.8164 8.72427 35.8933 8.58759 36.0471 8.468C36.2008 8.3484 36.3973 8.2886 36.6365 8.2886C37.3712 8.2886 38.0033 8.32277 38.5329 8.39111C39.0626 8.44237 39.4983 8.54488 39.84 8.69864C40.1987 8.85241 40.4721 9.06598 40.66 9.33934C40.848 9.6127 40.9676 9.97149 41.0188 10.4157C41.0359 10.6549 41.0701 11.1418 41.1213 11.8765C41.1726 12.6111 41.2239 13.4483 41.2751 14.388C41.3435 15.3106 41.4032 16.2503 41.4545 17.207C41.5228 18.1638 41.5826 18.9754 41.6339 19.6417C41.8389 18.5824 42.0012 17.7367 42.1208 17.1045C42.2575 16.4724 42.3686 15.9427 42.454 15.5156C42.5394 15.0885 42.6078 14.7126 42.659 14.388C42.7273 14.0634 42.8042 13.679 42.8897 13.2348C42.9751 12.7905 43.0691 12.2353 43.1716 11.5689C43.2912 10.9026 43.4535 10.0142 43.6585 8.90367C43.7268 8.49362 44.1796 8.2886 45.0168 8.2886C45.5464 8.2886 46.0419 8.30569 46.5032 8.33986C46.9645 8.37403 47.3745 8.45945 47.7333 8.59613C48.0921 8.71573 48.3996 8.90367 48.6559 9.15994C48.9122 9.39914 49.0916 9.7323 49.1941 10.1594C49.2282 10.279 49.2539 10.3986 49.271 10.5182C49.3051 10.6378 49.3393 10.8087 49.3735 11.0308C49.4076 11.2529 49.4418 11.5604 49.476 11.9534C49.5272 12.3463 49.5785 12.876 49.6297 13.5423C49.6981 14.2086 49.775 15.0372 49.8604 16.0282C49.9458 17.0191 50.0569 18.2236 50.1936 19.6417Z" fill="#FF4F18"/>
<path d="M60.3387 22.3838C59.8091 22.3838 59.3734 22.3326 59.0317 22.2301C58.7071 22.1105 58.4423 21.9482 58.2373 21.7432C58.0493 21.5381 57.9126 21.2904 57.8272 21C57.7589 20.6924 57.7247 20.3422 57.7247 19.9492C57.7247 19.6929 57.7332 19.3342 57.7503 18.8729C57.7845 18.3945 57.8358 17.7452 57.9041 16.9251C57.9724 16.088 58.0493 15.0372 58.1347 13.7729C58.2373 12.4915 58.3569 10.9112 58.4935 9.03181C58.5106 8.65593 58.5533 8.43383 58.6217 8.36548C58.6729 8.31423 58.8096 8.2886 59.0317 8.2886H60.0312C60.5608 8.2886 60.988 8.33986 61.3126 8.44237C61.6543 8.54488 61.9191 8.69864 62.107 8.90367C62.3121 9.10869 62.4487 9.35642 62.5171 9.64687C62.6025 9.93732 62.6452 10.2619 62.6452 10.6207C62.6452 10.877 62.6281 11.2614 62.594 11.774C62.5598 12.2865 62.5085 12.987 62.4402 13.8754C62.389 14.7468 62.3121 15.8402 62.2096 17.1558C62.107 18.4543 61.9789 20.0261 61.8251 21.8713C61.8081 22.0763 61.7653 22.213 61.697 22.2813C61.6287 22.3497 61.4834 22.3838 61.2613 22.3838H60.3387ZM58.5192 5.26453C58.5192 4.58112 58.7669 4.04294 59.2624 3.64998C59.7578 3.25703 60.4242 3.06055 61.2613 3.06055C61.996 3.06055 62.5256 3.21431 62.8502 3.52184C63.1919 3.81229 63.3628 4.20525 63.3628 4.70072C63.3628 5.33287 63.1236 5.86251 62.6452 6.28964C62.1839 6.69968 61.5005 6.9047 60.595 6.9047C59.2111 6.9047 58.5192 6.35798 58.5192 5.26453Z" fill="#FF4F18"/>
<path d="M69.3405 22.6401C68.6741 22.6401 68.0335 22.5205 67.4184 22.2813C66.8204 22.0421 66.2908 21.6663 65.8295 21.1537C65.3853 20.6412 65.0265 19.9919 64.7531 19.206C64.4968 18.4201 64.3687 17.4719 64.3687 16.3613C64.3687 15.8659 64.4029 15.3191 64.4712 14.7212C64.5395 14.1061 64.6591 13.491 64.83 12.876C65.0008 12.2609 65.24 11.6629 65.5476 11.082C65.8551 10.5011 66.2395 9.98857 66.7008 9.54436C67.1792 9.08306 67.743 8.71573 68.3922 8.44237C69.0586 8.16901 69.8359 8.03232 70.7244 8.03232C71.5786 8.03232 72.262 8.18609 72.7746 8.49362C73.3042 8.78407 73.6374 9.29663 73.7741 10.0313C73.8082 9.36497 73.8424 8.78407 73.8766 8.2886C73.9107 7.79313 73.9364 7.33183 73.9535 6.9047C73.9876 6.47758 74.0218 6.05045 74.056 5.62332C74.0901 5.19619 74.1243 4.70926 74.1585 4.16254C74.1756 3.78667 74.2183 3.56456 74.2866 3.49622C74.3208 3.46205 74.3635 3.44496 74.4148 3.44496C74.466 3.42788 74.56 3.41934 74.6967 3.41934H75.6961C76.2087 3.41934 76.6358 3.47913 76.9775 3.59873C77.3192 3.71832 77.5926 3.88063 77.7976 4.08565C78.0026 4.29068 78.1479 4.52987 78.2333 4.80323C78.3187 5.05951 78.3614 5.33287 78.3614 5.62332C78.3614 5.62332 78.3443 5.83688 78.3102 6.26401C78.276 6.69114 78.2333 7.26349 78.182 7.98107C78.1308 8.68156 78.071 9.48456 78.0026 10.3901C77.9343 11.2956 77.866 12.2353 77.7976 13.2091C77.7293 14.1659 77.6609 15.1227 77.5926 16.0794C77.5243 17.0191 77.4559 17.8905 77.3876 18.6935C77.3192 19.4794 77.2594 20.1628 77.2082 20.7437C77.174 21.3075 77.1484 21.6834 77.1313 21.8713C77.0971 22.0763 77.0544 22.213 77.0032 22.2813C76.9519 22.3497 76.8067 22.3838 76.5675 22.3838H75.6449C75.2861 22.3838 74.9444 22.3582 74.6198 22.307C74.3122 22.2386 74.0389 22.1361 73.7997 21.9994C73.5776 21.8457 73.3982 21.6492 73.2615 21.41C73.1419 21.1537 73.0821 20.8291 73.0821 20.4361C72.7746 21.0854 72.3047 21.615 71.6726 22.0251C71.0575 22.4351 70.2802 22.6401 69.3405 22.6401ZM71.5701 11.4408C70.6987 11.4408 70.0495 11.8252 69.6224 12.5941C69.2123 13.3458 69.0073 14.3624 69.0073 15.6438C69.0073 16.088 69.0329 16.5236 69.0842 16.9508C69.1525 17.3779 69.2636 17.7623 69.4174 18.104C69.5711 18.4457 69.7761 18.7191 70.0324 18.9241C70.3058 19.1291 70.6475 19.2316 71.0575 19.2316C71.7922 19.2316 72.4072 18.8729 72.9027 18.1553C73.3982 17.4377 73.6459 16.3101 73.6459 14.7724C73.6459 14.3453 73.6203 13.9352 73.569 13.5423C73.5178 13.1322 73.4153 12.7735 73.2615 12.4659C73.1077 12.1584 72.8942 11.9107 72.6208 11.7227C72.3475 11.5348 71.9972 11.4408 71.5701 11.4408Z" fill="#FF4F18"/>
<path d="M88.3665 19.3598C87.9393 20.1286 87.4182 20.701 86.8032 21.0768C86.1881 21.4356 85.4193 21.615 84.4967 21.615C83.7962 21.615 83.1555 21.504 82.5746 21.2819C81.9937 21.0597 81.4982 20.7095 81.0882 20.2311C80.6781 19.7527 80.3535 19.1548 80.1143 18.4372C79.8922 17.7025 79.7812 16.8312 79.7812 15.8232C79.7812 15.0031 79.8666 14.1403 80.0374 13.2348C80.2083 12.3122 80.5158 11.4664 80.96 10.6976C81.4213 9.92878 82.0449 9.29662 82.8309 8.80116C83.6168 8.2886 84.6248 8.03232 85.8549 8.03232C86.3675 8.03232 86.8032 8.09212 87.1619 8.21172C87.5378 8.31423 87.8539 8.45945 88.1102 8.64739C88.3835 8.83533 88.5971 9.05743 88.7509 9.31371C88.9217 9.56999 89.0499 9.84335 89.1353 10.1338C89.1353 10.1509 89.1353 10.0911 89.1353 9.9544C89.1524 9.80064 89.1695 9.62979 89.1865 9.44185C89.2036 9.25391 89.2122 9.07452 89.2122 8.90367C89.2292 8.71573 89.2378 8.59613 89.2378 8.54488C89.2549 8.37403 89.3659 8.2886 89.571 8.2886H90.7498C91.6383 8.2886 92.2789 8.47654 92.6719 8.85241C93.082 9.2112 93.287 9.90315 93.287 10.9283C93.287 11.0649 93.2784 11.381 93.2613 11.8765C93.2443 12.3549 93.2101 12.9358 93.1588 13.6192C93.1247 14.3026 93.0734 15.0629 93.0051 15.9C92.9367 16.7201 92.8598 17.5488 92.7744 18.3859C92.689 19.2231 92.595 20.0261 92.4925 20.7949C92.39 21.5638 92.2789 22.2386 92.1594 22.8195C92.0398 23.4004 91.8347 23.9642 91.5443 24.511C91.2538 25.0577 90.8438 25.5446 90.3142 25.9717C89.7845 26.3989 89.1011 26.7406 88.2639 26.9968C87.4439 27.2531 86.4358 27.3813 85.2399 27.3813C84.3344 27.3813 83.5399 27.2958 82.8565 27.125C82.1902 26.9541 81.6349 26.7235 81.1907 26.433C80.7465 26.1597 80.4048 25.8436 80.1656 25.4848C79.9435 25.126 79.8324 24.7672 79.8324 24.4084C79.8324 24.0838 79.9008 23.8019 80.0374 23.5627C80.1741 23.3235 80.3535 23.1271 80.5756 22.9733C80.7977 22.8195 81.0369 22.6999 81.2932 22.6145C81.5666 22.5462 81.8228 22.512 82.062 22.512C82.3525 22.512 82.566 22.5974 82.7027 22.7683C82.8394 22.9391 82.9932 23.1271 83.164 23.3321C83.3349 23.5542 83.5741 23.7507 83.8816 23.9215C84.1891 24.0924 84.6675 24.1778 85.3168 24.1778C86.4444 24.1778 87.2303 23.7592 87.6745 22.922C88.1358 22.1019 88.3665 20.9145 88.3665 19.3598ZM86.2137 18.2065C86.8288 18.2065 87.3072 18.0613 87.6489 17.7709C88.0077 17.4804 88.281 17.1302 88.469 16.7201C88.6569 16.3101 88.7765 15.883 88.8278 15.4387C88.879 14.9945 88.9046 14.6101 88.9046 14.2855C88.9046 13.2604 88.7423 12.5343 88.4177 12.1071C88.1102 11.6629 87.6403 11.4408 87.0082 11.4408C86.376 11.4408 85.8806 11.6117 85.5218 11.9534C85.163 12.2951 84.8896 12.7051 84.7017 13.1835C84.5308 13.6448 84.4198 14.1146 84.3685 14.593C84.3173 15.0543 84.2916 15.4131 84.2916 15.6694C84.2916 16.5236 84.4369 17.1643 84.7273 17.5915C85.0178 18.0015 85.5132 18.2065 86.2137 18.2065Z" fill="#FF4F18"/>
<path d="M101.217 22.6401C100.465 22.6401 99.7133 22.5462 98.9615 22.3582C98.2268 22.1703 97.5605 21.8457 96.9625 21.3844C96.3816 20.9231 95.9033 20.308 95.5274 19.5392C95.1515 18.7703 94.9636 17.805 94.9636 16.6432C94.9636 16.2161 94.9978 15.7036 95.0661 15.1056C95.1344 14.5076 95.2626 13.8925 95.4505 13.2604C95.6555 12.6282 95.9289 12.0046 96.2706 11.3896C96.6294 10.7574 97.0907 10.1936 97.6545 9.69813C98.2183 9.20266 98.9017 8.80116 99.7047 8.49362C100.508 8.18609 101.464 8.03232 102.575 8.03232C103.463 8.03232 104.215 8.13484 104.83 8.33986C105.445 8.54488 105.941 8.82678 106.317 9.18557C106.693 9.52728 106.966 9.92878 107.137 10.3901C107.308 10.8514 107.393 11.3468 107.393 11.8765C107.393 12.6624 107.231 13.3287 106.906 13.8754C106.599 14.4222 106.189 14.8835 105.676 15.2593C105.181 15.6181 104.625 15.9 104.01 16.1051C103.395 16.3101 102.789 16.4724 102.191 16.592C101.593 16.6945 101.037 16.7628 100.525 16.797C100.029 16.8141 99.6449 16.8226 99.3716 16.8226C99.3716 17.1473 99.4143 17.4719 99.4997 17.7965C99.6022 18.104 99.7474 18.3774 99.9354 18.6166C100.123 18.8558 100.371 19.0522 100.679 19.206C100.986 19.3598 101.362 19.4367 101.806 19.4367C102.25 19.4367 102.592 19.3683 102.831 19.2316C103.088 19.0779 103.293 18.9156 103.446 18.7447C103.6 18.5568 103.728 18.3945 103.831 18.2578C103.95 18.104 104.104 18.0271 104.292 18.0271C104.377 18.0271 104.523 18.0528 104.728 18.104C104.95 18.1382 105.172 18.2236 105.394 18.3603C105.616 18.497 105.813 18.6849 105.984 18.9241C106.154 19.1633 106.24 19.4708 106.24 19.8467C106.24 20.3422 106.086 20.7693 105.778 21.1281C105.471 21.4869 105.069 21.7773 104.574 21.9994C104.096 22.2215 103.557 22.3838 102.959 22.4864C102.361 22.5889 101.781 22.6401 101.217 22.6401ZM101.704 11.4408C101.328 11.4408 101.003 11.5519 100.73 11.774C100.474 11.979 100.251 12.2438 100.063 12.5684C99.8926 12.893 99.756 13.2518 99.6535 13.6448C99.568 14.0378 99.4997 14.4136 99.4484 14.7724C100.508 14.7553 101.362 14.5759 102.011 14.2342C102.678 13.8925 103.011 13.4056 103.011 12.7735C103.011 12.4317 102.9 12.1242 102.678 11.8509C102.473 11.5775 102.148 11.4408 101.704 11.4408Z" fill="#FF4F18"/>
<path d="M114.19 11.7483C114.139 12.3976 114.079 13.0383 114.011 13.6704C113.96 14.3026 113.908 14.9006 113.857 15.4644C113.806 16.0282 113.763 16.5322 113.729 16.9764C113.712 17.4206 113.703 17.7623 113.703 18.0015C113.703 18.4457 113.755 18.7447 113.857 18.8985C113.96 19.0352 114.13 19.1035 114.37 19.1035C114.558 19.1035 114.72 19.0693 114.857 19.001C114.993 18.9326 115.121 18.8558 115.241 18.7703C115.361 18.6849 115.463 18.608 115.548 18.5397C115.651 18.4713 115.762 18.4372 115.882 18.4372C116.001 18.4372 116.112 18.5055 116.215 18.6422C116.317 18.7789 116.369 19.095 116.369 19.5904C116.369 20.5301 116.112 21.2733 115.6 21.82C115.087 22.3668 114.207 22.6401 112.96 22.6401C111.73 22.6401 110.816 22.3582 110.218 21.7944C109.637 21.2135 109.347 20.3336 109.347 19.1548C109.347 18.8985 109.355 18.5995 109.372 18.2578C109.406 17.899 109.449 17.4377 109.5 16.8739C109.552 16.3101 109.611 15.6181 109.68 14.798C109.765 13.978 109.851 12.9614 109.936 11.7483H108.578C108.441 11.7483 108.356 11.7227 108.321 11.6715C108.304 11.6031 108.296 11.5092 108.296 11.3896L108.373 10.0825C108.39 9.86044 108.415 9.64687 108.45 9.44185C108.501 9.21974 108.586 9.02326 108.706 8.85241C108.843 8.68156 109.03 8.54488 109.27 8.44237C109.509 8.33986 109.825 8.2886 110.218 8.2886C110.337 7.98107 110.474 7.61374 110.628 7.18661C110.782 6.75948 110.935 6.34944 111.089 5.95648C111.243 5.54644 111.388 5.20473 111.525 4.93137C111.679 4.65801 111.815 4.52133 111.935 4.52133H112.678C113.396 4.52133 113.891 4.74343 114.165 5.18765C114.438 5.63186 114.575 6.1615 114.575 6.77657C114.575 7.11827 114.549 7.62228 114.498 8.2886H117.189C117.462 8.2886 117.599 8.4082 117.599 8.64739L117.496 10.0313C117.462 10.5438 117.317 10.9624 117.06 11.287C116.821 11.5946 116.317 11.7483 115.548 11.7483H114.19Z" fill="#FF4F18"/>
<path d="M119.429 8.67302C119.429 8.51925 119.454 8.41674 119.506 8.36548C119.557 8.31423 119.719 8.2886 119.993 8.2886H120.915C121.342 8.2886 121.718 8.3484 122.043 8.468C122.385 8.57051 122.666 8.70719 122.889 8.87804C123.128 9.03181 123.307 9.2112 123.427 9.41622C123.546 9.62124 123.606 9.82627 123.606 10.0313C123.606 10.1338 123.589 10.4157 123.555 10.877C123.538 11.3212 123.504 11.885 123.452 12.5684C123.401 13.2348 123.341 13.978 123.273 14.798C123.222 15.601 123.162 16.4211 123.094 17.2583C123.042 18.0784 122.983 18.8729 122.914 19.6417C122.863 20.4105 122.82 21.0768 122.786 21.6406C122.701 22.8537 122.504 23.8275 122.197 24.5622C121.906 25.314 121.547 25.8948 121.12 26.3049C120.693 26.732 120.215 27.0139 119.685 27.1506C119.155 27.3044 118.609 27.3813 118.045 27.3813C117.549 27.3813 117.054 27.33 116.559 27.2275C116.046 27.1421 115.585 27.0054 115.175 26.8174C114.765 26.6295 114.431 26.3903 114.175 26.0999C113.919 25.8094 113.791 25.4677 113.791 25.0748C113.791 24.6647 113.919 24.3401 114.175 24.1009C114.414 23.8617 114.705 23.6823 115.047 23.5627C115.371 23.4431 115.696 23.3662 116.02 23.3321C116.328 23.2979 116.559 23.2808 116.712 23.2808C116.764 23.2808 116.815 23.3235 116.866 23.409C116.9 23.5115 116.951 23.614 117.02 23.7165C117.071 23.8361 117.148 23.9386 117.25 24.024C117.353 24.1265 117.498 24.1778 117.686 24.1778C117.891 24.1778 118.045 24.0924 118.147 23.9215C118.267 23.7677 118.361 23.5029 118.429 23.1271C118.498 22.7512 118.558 22.2557 118.609 21.6406C118.66 21.0085 118.711 20.2226 118.763 19.2829L119.429 8.67302ZM119.173 5.26453C119.173 4.58112 119.42 4.04294 119.916 3.64998C120.411 3.25703 121.078 3.06055 121.915 3.06055C122.649 3.06055 123.179 3.21431 123.504 3.52184C123.845 3.81229 124.016 4.20525 124.016 4.70072C124.016 5.33287 123.777 5.86251 123.299 6.28964C122.837 6.69968 122.154 6.9047 121.248 6.9047C119.865 6.9047 119.173 6.35798 119.173 5.26453Z" fill="#FF4F18"/>
<path d="M131.302 22.6401C130.123 22.6401 129.141 22.4778 128.355 22.1532C127.586 21.8115 126.971 21.3502 126.51 20.7693C126.048 20.1884 125.724 19.5135 125.536 18.7447C125.348 17.9588 125.254 17.1216 125.254 16.2332C125.254 15.2081 125.374 14.2086 125.613 13.2348C125.869 12.2438 126.296 11.3639 126.894 10.5951C127.492 9.82627 128.278 9.2112 129.252 8.7499C130.243 8.27152 131.473 8.03232 132.942 8.03232C135.095 8.03232 136.633 8.56196 137.555 9.62124C138.495 10.6634 138.965 12.1328 138.965 14.0292C138.965 14.5589 138.922 15.1483 138.837 15.7975C138.768 16.4297 138.623 17.0618 138.401 17.694C138.196 18.3261 137.906 18.9412 137.53 19.5392C137.171 20.1372 136.71 20.6668 136.146 21.1281C135.582 21.5894 134.899 21.9567 134.096 22.2301C133.31 22.5034 132.378 22.6401 131.302 22.6401ZM132.507 11.4408C131.857 11.4408 131.336 11.6117 130.943 11.9534C130.567 12.278 130.277 12.6795 130.072 13.1579C129.884 13.6192 129.756 14.1146 129.688 14.6443C129.636 15.1568 129.611 15.5925 129.611 15.9513C129.611 17.0789 129.79 17.9075 130.149 18.4372C130.508 18.9668 131.02 19.2316 131.687 19.2316C132.284 19.2316 132.771 19.0437 133.147 18.6678C133.54 18.292 133.839 17.8392 134.044 17.3096C134.266 16.7799 134.412 16.2247 134.48 15.6438C134.565 15.0629 134.608 14.5759 134.608 14.183C134.608 13.3287 134.446 12.6624 134.121 12.184C133.814 11.6885 133.275 11.4408 132.507 11.4408Z" fill="#FF4F18"/>
<path d="M145.517 10.6464C145.517 11.0393 145.491 11.5092 145.44 12.0559C145.389 12.5855 145.329 13.1237 145.26 13.6704C145.209 14.2001 145.158 14.7041 145.107 15.1825C145.055 15.6438 145.03 16.0025 145.03 16.2588C145.03 16.9081 145.184 17.395 145.491 17.7196C145.816 18.0271 146.209 18.1809 146.67 18.1809C147.473 18.1809 148.114 17.7623 148.592 16.9251C149.07 16.088 149.369 14.9774 149.489 13.5935L149.899 8.80116C149.916 8.61322 149.976 8.48508 150.078 8.41674C150.198 8.33131 150.326 8.2886 150.463 8.2886H151.385C151.744 8.2886 152.077 8.32277 152.385 8.39111C152.71 8.44237 152.991 8.55342 153.231 8.72427C153.47 8.87804 153.658 9.0916 153.794 9.36497C153.931 9.63833 153.999 9.98857 153.999 10.4157C153.999 10.5866 153.982 10.9112 153.948 11.3896C153.931 11.8509 153.888 12.5257 153.82 13.4141C153.769 14.2855 153.692 15.396 153.589 16.7457C153.487 18.0784 153.367 19.71 153.231 21.6406C153.145 22.7683 152.889 23.6994 152.462 24.4341C152.052 25.1858 151.531 25.7753 150.898 26.2024C150.266 26.6466 149.557 26.9541 148.771 27.125C147.985 27.2958 147.182 27.3813 146.362 27.3813C145.491 27.3813 144.688 27.3044 143.953 27.1506C143.236 26.9968 142.612 26.7833 142.083 26.5099C141.553 26.2365 141.134 25.9205 140.827 25.5617C140.536 25.2029 140.391 24.8185 140.391 24.4084C140.391 24.0838 140.459 23.8019 140.596 23.5627C140.75 23.3235 140.946 23.1271 141.186 22.9733C141.425 22.8195 141.698 22.6999 142.006 22.6145C142.33 22.5462 142.663 22.512 143.005 22.512C143.176 22.512 143.296 22.5974 143.364 22.7683C143.449 22.9391 143.569 23.1271 143.723 23.3321C143.894 23.5542 144.158 23.7507 144.517 23.9215C144.876 24.0924 145.414 24.1778 146.132 24.1778C146.764 24.1778 147.276 24.024 147.669 23.7165C148.062 23.409 148.361 23.016 148.566 22.5376C148.788 22.0592 148.934 21.5381 149.002 20.9743C149.07 20.4105 149.105 19.8723 149.105 19.3598C148.831 19.8382 148.524 20.2311 148.182 20.5387C147.857 20.8291 147.516 21.0597 147.157 21.2306C146.798 21.3844 146.439 21.4869 146.08 21.5381C145.722 21.5894 145.38 21.615 145.055 21.615C144.423 21.615 143.842 21.5296 143.313 21.3587C142.8 21.1879 142.356 20.9145 141.98 20.5387C141.604 20.1457 141.314 19.6417 141.109 19.0266C140.904 18.4116 140.801 17.6683 140.801 16.797C140.801 16.4724 140.818 16.0453 140.852 15.5156C140.887 14.9689 140.929 14.3624 140.981 13.6961C141.032 13.0126 141.083 12.278 141.134 11.4921C141.203 10.7062 141.271 9.90315 141.339 9.08306C141.374 8.55342 141.613 8.2886 142.057 8.2886H142.877C143.424 8.2886 143.868 8.33986 144.21 8.44237C144.551 8.54488 144.816 8.69864 145.004 8.90367C145.209 9.0916 145.346 9.33934 145.414 9.64687C145.482 9.93732 145.517 10.2705 145.517 10.6464Z" fill="#FF4F18"/>
<path fill-rule="evenodd" clip-rule="evenodd" d="M1.2504 3.84736L26.691 0.723649C27.4715 0.627821 28.1818 1.18283 28.2777 1.96329L30.5947 20.8336C30.6905 21.6141 30.1355 22.3245 29.355 22.4203L25.3349 22.9139C25.0151 22.9532 24.7181 23.0997 24.4924 23.3297L19.0643 28.8594C18.2291 29.7103 16.7805 29.219 16.6351 28.0355L16.3184 25.4555C16.2225 24.675 15.5122 24.12 14.7317 24.2158L3.91441 25.544C3.13395 25.6398 2.42358 25.0848 2.32775 24.3044L0.0107585 5.43402C-0.0850701 4.65356 0.469935 3.94319 1.2504 3.84736ZM13.781 13.4592C13.3705 13.0737 12.8909 12.9147 12.3422 12.9821C12.2895 12.5527 12.3575 12.1206 12.5463 11.6858C12.7589 11.2481 12.9893 10.8566 13.2374 10.5113C13.4827 10.1422 13.7099 9.82375 13.9192 9.55592C14.1523 9.28517 14.263 9.10208 14.2513 9.00666C14.2102 8.67271 14.0797 8.39818 13.8596 8.18307C13.6604 7.94118 13.2865 7.85391 12.7378 7.92128C12.046 8.00622 11.4164 8.30145 10.8489 8.80697C10.2815 9.31249 9.79118 9.95381 9.37812 10.7309C8.98891 11.5051 8.70683 12.363 8.53188 13.3046C8.35693 14.2462 8.32803 15.1941 8.44519 16.1483C8.5272 16.8162 8.66612 17.356 8.86197 17.7678C9.05781 18.1796 9.29111 18.5021 9.56187 18.7352C9.8297 18.9444 10.126 19.0896 10.4507 19.1708C10.7964 19.2253 11.1601 19.229 11.5417 19.1822C12.1142 19.1119 12.6034 18.9549 13.0094 18.7114C13.4124 18.444 13.7365 18.1257 13.9818 17.7566C14.227 17.3875 14.3948 16.9795 14.4852 16.5326C14.5756 16.0856 14.5915 15.6236 14.533 15.1465C14.4392 14.3832 14.1886 13.8207 13.781 13.4592ZM21.5812 12.5014C21.1707 12.116 20.6911 11.9569 20.1425 12.0243C20.0897 11.5949 20.1578 11.1628 20.3465 10.728C20.5591 10.2903 20.7895 9.89882 21.0377 9.55357C21.2829 9.18447 21.5102 8.866 21.7194 8.59817C21.9525 8.32742 22.0632 8.14433 22.0515 8.04891C22.0105 7.71496 21.8799 7.44043 21.6598 7.22532C21.4606 6.98343 21.0867 6.89616 20.538 6.96353C19.8463 7.04847 19.2167 7.3437 18.6492 7.84922C18.0817 8.35474 17.5914 8.99607 17.1784 9.77319C16.7891 10.5474 16.5071 11.4053 16.3321 12.3469C16.1572 13.2885 16.1283 14.2364 16.2454 15.1905C16.3274 15.8584 16.4664 16.3983 16.6622 16.8101C16.858 17.2219 17.0913 17.5443 17.3621 17.7774C17.6299 17.9867 17.9262 18.1319 18.251 18.2131C18.5966 18.2675 18.9603 18.2713 19.342 18.2244C19.9145 18.1541 20.4037 17.9972 20.8096 17.7536C21.2126 17.4862 21.5368 17.168 21.782 16.7989C22.0272 16.4298 22.1951 16.0218 22.2855 15.5748C22.3759 15.1279 22.3918 14.6659 22.3332 14.1888C22.2395 13.4255 21.9888 12.863 21.5812 12.5014Z" fill="#FF4F18"/>
</svg>
