<svg width="52" height="47" viewBox="0 0 52 47" fill="none" xmlns="http://www.w3.org/2000/svg">
<path fill-rule="evenodd" clip-rule="evenodd" d="M2.58362 5.15564L44.9771 0.0176957C46.2777 -0.139925 47.4614 0.772957 47.6211 2.05667L51.4821 33.095C51.6418 34.3787 50.7169 35.5471 49.4164 35.7047L42.7174 36.5166C42.1845 36.5812 41.6896 36.8223 41.3135 37.2005L32.2683 46.2958C30.8764 47.6954 28.4625 46.8873 28.2203 44.9407L27.6924 40.697C27.5328 39.4133 26.349 38.5004 25.0485 38.658L7.02286 40.8427C5.72232 41.0003 4.53858 40.0874 4.37889 38.8037L0.517928 7.7654C0.358242 6.48169 1.28309 5.31326 2.58362 5.15564ZM23.4642 20.9653C22.7801 20.3313 21.981 20.0697 21.0667 20.1805C20.9789 19.4743 21.0922 18.7636 21.4067 18.0484C21.761 17.3284 22.1449 16.6845 22.5585 16.1166C22.9671 15.5095 23.3458 14.9857 23.6945 14.5452C24.0829 14.0998 24.2674 13.7987 24.2479 13.6417C24.1796 13.0924 23.962 12.6409 23.5952 12.2871C23.2633 11.8892 22.6402 11.7457 21.7259 11.8565C20.5732 11.9962 19.524 12.4818 18.5784 13.3133C17.6327 14.1448 16.8158 15.1996 16.1274 16.4779C15.4789 17.7513 15.0088 19.1624 14.7173 20.7111C14.4257 22.2599 14.3776 23.819 14.5728 25.3884C14.7095 26.487 14.941 27.3749 15.2673 28.0523C15.5937 28.7296 15.9824 29.26 16.4336 29.6434C16.8799 29.9875 17.3737 30.2264 17.9148 30.36C18.4908 30.4495 19.0968 30.4557 19.7328 30.3786C20.6868 30.263 21.502 30.0049 22.1785 29.6043C22.85 29.1644 23.3901 28.641 23.7988 28.0339C24.2075 27.4267 24.4871 26.7556 24.6378 26.0205C24.7884 25.2853 24.8149 24.5254 24.7173 23.7407C24.5611 22.4852 24.1434 21.56 23.4642 20.9653ZM36.4623 19.39C35.7782 18.756 34.9791 18.4944 34.0648 18.6052C33.977 17.899 34.0903 17.1883 34.4048 16.4731C34.7591 15.7531 35.143 15.1092 35.5566 14.5413C35.9652 13.9342 36.3439 13.4104 36.6926 12.9699C37.081 12.5245 37.2655 12.2234 37.246 12.0664C37.1777 11.5171 36.9601 11.0656 36.5933 10.7118C36.2613 10.3139 35.6383 10.1704 34.724 10.2812C33.5713 10.4209 32.5221 10.9065 31.5765 11.738C30.6308 12.5695 29.8138 13.6243 29.1255 14.9025C28.477 16.176 28.0069 17.587 27.7154 19.1358C27.4238 20.6845 27.3757 22.2436 27.5709 23.813C27.7076 24.9116 27.9391 25.7996 28.2654 26.4769C28.5918 27.1543 28.9805 27.6846 29.4317 28.068C29.878 28.4122 30.3717 28.6511 30.9129 28.7846C31.4889 28.8741 32.0949 28.8803 32.7309 28.8033C33.6849 28.6876 34.5001 28.4295 35.1766 28.0289C35.8481 27.5891 36.3882 27.0656 36.7969 26.4585C37.2056 25.8514 37.4852 25.1803 37.6359 24.4452C37.7865 23.71 37.813 22.9501 37.7154 22.1654C37.5592 20.9099 37.1415 19.9847 36.4623 19.39Z" fill="#FF4F18"/>
</svg>
