<svg width="148" height="28" viewBox="0 0 148 28" fill="none" xmlns="http://www.w3.org/2000/svg">
<path d="M48.2388 18.4604C48.4523 17.2618 48.6329 16.2192 48.7806 15.3325C48.9448 14.4295 49.0762 13.6495 49.1747 12.9928C49.2896 12.336 49.38 11.7695 49.4456 11.2934C49.5277 10.8172 49.5934 10.3985 49.6427 10.0373C49.7083 9.65962 49.7576 9.33123 49.7904 9.0521C49.8397 8.75655 49.889 8.4528 49.9382 8.14083C49.9711 7.96021 50.0531 7.82065 50.1845 7.72213C50.3323 7.62362 50.6032 7.57436 50.9973 7.57436C51.2107 7.57436 51.5063 7.59078 51.8839 7.62362C52.278 7.64004 52.6638 7.6975 53.0415 7.79602C53.4191 7.89454 53.7393 8.05052 54.002 8.26397C54.2811 8.46101 54.4207 8.74014 54.4207 9.10136C54.4207 9.36407 54.3468 9.75814 54.199 10.2836C54.0513 10.7926 53.8625 11.3837 53.6326 12.0569C53.4027 12.7301 53.14 13.4525 52.8444 14.2242C52.5489 14.9795 52.2451 15.7348 51.9332 16.4901C51.6376 17.229 51.3503 17.935 51.0712 18.6082C50.792 19.2814 50.5539 19.8643 50.3569 20.3569C50.2256 20.6524 50.0942 20.8494 49.9628 20.948C49.8479 21.0465 49.6345 21.0957 49.3225 21.0957H47.8694C47.4096 21.0957 47.032 21.0383 46.7364 20.9233C46.4409 20.8084 46.2028 20.6524 46.0222 20.4554C45.8416 20.2584 45.702 20.0367 45.6035 19.7904C45.505 19.5277 45.4311 19.2486 45.3818 18.953C45.2176 18.1156 45.0452 16.9909 44.8646 15.5788C44.684 14.1667 44.5198 12.5002 44.372 10.5791C44.2899 10.9403 44.1914 11.4247 44.0765 12.0322C43.978 12.6397 43.863 13.2965 43.7317 14.0026C43.6167 14.7086 43.4936 15.431 43.3622 16.1699C43.2309 16.9088 43.1077 17.5984 42.9928 18.2388C42.8779 18.8627 42.7711 19.4045 42.6726 19.8643C42.5741 20.3076 42.492 20.5949 42.4263 20.7263C42.3442 20.8905 42.2375 20.9972 42.1062 21.0465C41.9912 21.0793 41.8188 21.0957 41.5889 21.0957H39.8649C39.438 21.0957 39.0686 21.0383 38.7566 20.9233C38.461 20.792 38.1983 20.6278 37.9685 20.4308C37.755 20.2337 37.5744 20.0121 37.4266 19.7658C37.2953 19.5031 37.1968 19.2321 37.1311 18.953C36.228 15.4393 35.5466 12.7875 35.0869 10.9978C34.6435 9.20809 34.4219 8.24755 34.4219 8.1162C34.4219 7.96842 34.4958 7.83707 34.6435 7.72213C34.7913 7.6072 34.9801 7.54973 35.21 7.54973C35.916 7.54973 36.5236 7.58257 37.0326 7.64825C37.5416 7.6975 37.9603 7.79602 38.2886 7.94379C38.6335 8.09157 38.8962 8.29681 39.0768 8.55952C39.2574 8.82223 39.3723 9.16704 39.4216 9.59395C39.438 9.82382 39.4708 10.2918 39.5201 10.9978C39.5694 11.7038 39.6186 12.5084 39.6679 13.4115C39.7336 14.2981 39.791 15.2012 39.8403 16.1207C39.906 17.0401 39.9634 17.8201 40.0127 18.4604C40.2097 17.4424 40.3657 16.6297 40.4806 16.0221C40.612 15.4146 40.7187 14.9056 40.8008 14.4951C40.8829 14.0847 40.9486 13.7234 40.9978 13.4115C41.0635 13.0995 41.1374 12.7301 41.2195 12.3031C41.3016 11.8762 41.3919 11.3426 41.4904 10.7023C41.6054 10.0619 41.7613 9.20809 41.9584 8.14083C42.0241 7.74676 42.4592 7.54973 43.2637 7.54973C43.7727 7.54973 44.2489 7.56615 44.6922 7.59899C45.1355 7.63183 45.5296 7.71392 45.8744 7.84528C46.2192 7.96021 46.5148 8.14083 46.7611 8.38712C47.0073 8.61699 47.1798 8.93717 47.2783 9.34765C47.3111 9.46259 47.3357 9.57752 47.3522 9.69246C47.385 9.8074 47.4178 9.97159 47.4507 10.185C47.4835 10.3985 47.5164 10.694 47.5492 11.0717C47.5984 11.4493 47.6477 11.9583 47.697 12.5987C47.7626 13.2391 47.8365 14.0354 47.9186 14.9877C48.0007 15.94 48.1074 17.0976 48.2388 18.4604Z" fill="inherit"/>
<path d="M57.9887 21.0957C57.4797 21.0957 57.061 21.0465 56.7326 20.948C56.4206 20.833 56.1661 20.677 55.9691 20.48C55.7885 20.283 55.6571 20.0449 55.575 19.7658C55.5093 19.4702 55.4765 19.1336 55.4765 18.756C55.4765 18.5097 55.4847 18.1649 55.5011 17.7215C55.534 17.2618 55.5832 16.6379 55.6489 15.8497C55.7146 15.0452 55.7885 14.0354 55.8706 12.8204C55.9691 11.5889 56.084 10.0701 56.2154 8.26397C56.2318 7.90274 56.2728 7.68929 56.3385 7.62362C56.3878 7.57436 56.5191 7.54973 56.7326 7.54973H57.6931C58.2021 7.54973 58.6126 7.59899 58.9246 7.6975C59.253 7.79602 59.5075 7.94379 59.6881 8.14083C59.8851 8.33786 60.0165 8.57594 60.0821 8.85507C60.1642 9.1342 60.2053 9.44617 60.2053 9.79098C60.2053 10.0373 60.1889 10.4067 60.156 10.8993C60.1232 11.3919 60.0739 12.0651 60.0082 12.9189C59.959 13.7563 59.8851 14.8071 59.7866 16.0714C59.6881 17.3193 59.5649 18.8299 59.4171 20.6032C59.4007 20.8002 59.3597 20.9315 59.294 20.9972C59.2283 21.0629 59.0888 21.0957 58.8753 21.0957H57.9887ZM56.24 4.64349C56.24 3.98672 56.4781 3.46951 56.9542 3.09186C57.4304 2.71421 58.0708 2.52539 58.8753 2.52539C59.5813 2.52539 60.0903 2.67316 60.4023 2.96871C60.7307 3.24784 60.8949 3.62549 60.8949 4.10165C60.8949 4.70917 60.665 5.21817 60.2053 5.62866C59.762 6.02272 59.1052 6.21976 58.235 6.21976C56.905 6.21976 56.24 5.69433 56.24 4.64349Z" fill="inherit"/>
<path d="M66.6396 21.342C65.9993 21.342 65.3835 21.2271 64.7924 20.9972C64.2178 20.7673 63.7088 20.4061 63.2654 19.9135C62.8385 19.421 62.4937 18.797 62.231 18.0417C61.9847 17.2864 61.8616 16.3752 61.8616 15.3079C61.8616 14.8317 61.8944 14.3063 61.9601 13.7316C62.0258 13.1405 62.1407 12.5494 62.3049 11.9583C62.4691 11.3672 62.699 10.7926 62.9945 10.2343C63.2901 9.67604 63.6595 9.18346 64.1028 8.75655C64.5626 8.31323 65.1044 7.96021 65.7284 7.6975C66.3687 7.43479 67.1158 7.30344 67.9696 7.30344C68.7906 7.30344 69.4474 7.45121 69.9399 7.74676C70.4489 8.02589 70.7691 8.51847 70.9005 9.22451C70.9333 8.58415 70.9661 8.02589 70.999 7.54973C71.0318 7.07357 71.0565 6.63024 71.0729 6.21976C71.1057 5.80927 71.1385 5.39879 71.1714 4.9883C71.2042 4.57782 71.2371 4.10986 71.2699 3.58444C71.2863 3.22321 71.3274 3.00976 71.3931 2.94408C71.4259 2.91125 71.4669 2.89483 71.5162 2.89483C71.5655 2.87841 71.6558 2.8702 71.7871 2.8702H72.7477C73.2402 2.8702 73.6507 2.92767 73.9791 3.0426C74.3075 3.15754 74.5702 3.31352 74.7672 3.51055C74.9643 3.70759 75.1038 3.93746 75.1859 4.20017C75.268 4.44646 75.3091 4.70917 75.3091 4.9883C75.3091 4.9883 75.2927 5.19354 75.2598 5.60403C75.227 6.01451 75.1859 6.56456 75.1367 7.25418C75.0874 7.92737 75.0299 8.69909 74.9643 9.56931C74.8986 10.4395 74.8329 11.3426 74.7672 12.2785C74.7016 13.198 74.6359 14.1175 74.5702 15.037C74.5045 15.94 74.4389 16.7774 74.3732 17.5491C74.3075 18.3044 74.25 18.9612 74.2008 19.5195C74.1679 20.0613 74.1433 20.4225 74.1269 20.6032C74.094 20.8002 74.053 20.9315 74.0037 20.9972C73.9545 21.0629 73.8149 21.0957 73.585 21.0957H72.6984C72.3536 21.0957 72.0252 21.0711 71.7132 21.0219C71.4177 20.9562 71.155 20.8577 70.9251 20.7263C70.7116 20.5785 70.5392 20.3897 70.4079 20.1598C70.293 19.9135 70.2355 19.6016 70.2355 19.2239C69.9399 19.8479 69.4884 20.3569 68.8809 20.7509C68.2898 21.145 67.5427 21.342 66.6396 21.342ZM68.7824 10.5791C67.945 10.5791 67.321 10.9485 66.9106 11.6874C66.5165 12.4099 66.3195 13.3868 66.3195 14.6183C66.3195 15.0452 66.3441 15.4639 66.3933 15.8744C66.459 16.2849 66.5657 16.6543 66.7135 16.9827C66.8613 17.3111 67.0583 17.5738 67.3046 17.7708C67.5673 17.9678 67.8957 18.0664 68.2898 18.0664C68.9958 18.0664 69.5869 17.7216 70.0631 17.0319C70.5392 16.3423 70.7773 15.2586 70.7773 13.7809C70.7773 13.3704 70.7527 12.9763 70.7034 12.5987C70.6542 12.2046 70.5557 11.8598 70.4079 11.5643C70.2601 11.2687 70.0549 11.0306 69.7922 10.85C69.5294 10.6694 69.1929 10.5791 68.7824 10.5791Z" fill="inherit"/>
<path d="M84.9242 18.1895C84.5138 18.9284 84.013 19.4784 83.4219 19.8397C82.8308 20.1845 82.0919 20.3569 81.2052 20.3569C80.5321 20.3569 79.9163 20.2501 79.3581 20.0367C78.7998 19.8232 78.3236 19.4866 77.9296 19.0269C77.5355 18.5672 77.2235 17.9925 76.9937 17.3029C76.7802 16.5968 76.6735 15.7594 76.6735 14.7907C76.6735 14.0026 76.7556 13.1734 76.9198 12.3031C77.084 11.4165 77.3795 10.6037 77.8064 9.86486C78.2498 9.12599 78.8491 8.51847 79.6044 8.04231C80.3597 7.54973 81.3284 7.30344 82.5106 7.30344C83.0032 7.30344 83.4219 7.36091 83.7667 7.47584C84.1279 7.57436 84.4317 7.71392 84.678 7.89454C84.9407 8.07515 85.1459 8.2886 85.2937 8.53489C85.4579 8.78118 85.581 9.04389 85.6631 9.32302C85.6631 9.33944 85.6631 9.28198 85.6631 9.15062C85.6795 9.00285 85.696 8.83865 85.7124 8.65804C85.7288 8.47742 85.737 8.30502 85.737 8.14083C85.7534 7.96021 85.7616 7.84528 85.7616 7.79602C85.7781 7.63183 85.8848 7.54973 86.0818 7.54973H87.2148C88.0686 7.54973 88.6843 7.73034 89.0619 8.09157C89.456 8.43638 89.653 9.10136 89.653 10.0865C89.653 10.2179 89.6448 10.5216 89.6284 10.9978C89.612 11.4575 89.5791 12.0158 89.5299 12.6726C89.4971 13.3294 89.4478 14.06 89.3821 14.8646C89.3164 15.6527 89.2425 16.449 89.1605 17.2536C89.0784 18.0581 88.988 18.8299 88.8895 19.5687C88.791 20.3076 88.6843 20.9562 88.5694 21.5144C88.4544 22.0727 88.2574 22.6145 87.9783 23.14C87.6991 23.6654 87.3051 24.1333 86.7961 24.5438C86.2871 24.9543 85.6303 25.2827 84.8257 25.529C84.0376 25.7753 83.0689 25.8984 81.9195 25.8984C81.0493 25.8984 80.2858 25.8163 79.629 25.6521C78.9886 25.4879 78.455 25.2663 78.0281 24.9871C77.6012 24.7244 77.2728 24.4207 77.0429 24.0759C76.8295 23.7311 76.7228 23.3862 76.7228 23.0414C76.7228 22.7295 76.7884 22.4585 76.9198 22.2287C77.0511 21.9988 77.2235 21.81 77.437 21.6622C77.6504 21.5144 77.8803 21.3995 78.1266 21.3174C78.3893 21.2517 78.6356 21.2189 78.8655 21.2189C79.1446 21.2189 79.3499 21.301 79.4812 21.4652C79.6126 21.6294 79.7603 21.81 79.9245 22.007C80.0887 22.2205 80.3186 22.4093 80.6142 22.5735C80.9097 22.7377 81.3694 22.8198 81.9934 22.8198C83.0771 22.8198 83.8324 22.4175 84.2593 21.6129C84.7026 20.8248 84.9242 19.6837 84.9242 18.1895ZM82.8554 17.0812C83.4465 17.0812 83.9062 16.9416 84.2346 16.6625C84.5794 16.3834 84.8421 16.0468 85.0228 15.6527C85.2034 15.2586 85.3183 14.8482 85.3676 14.4213C85.4168 13.9943 85.4415 13.6249 85.4415 13.3129C85.4415 12.3278 85.2855 11.63 84.9735 11.2195C84.678 10.7926 84.2264 10.5791 83.6189 10.5791C83.0114 10.5791 82.5352 10.7433 82.1904 11.0717C81.8456 11.4001 81.5829 11.7941 81.4023 12.2539C81.2381 12.6972 81.1314 13.1487 81.0821 13.6085C81.0328 14.0518 81.0082 14.3966 81.0082 14.6429C81.0082 15.4639 81.1478 16.0796 81.4269 16.4901C81.706 16.8842 82.1822 17.0812 82.8554 17.0812Z" fill="inherit"/>
<path d="M97.2738 21.342C96.5514 21.342 95.8289 21.2517 95.1065 21.0711C94.4004 20.8905 93.7601 20.5785 93.1854 20.1352C92.6271 19.6919 92.1674 19.1008 91.8062 18.3619C91.4449 17.623 91.2643 16.6953 91.2643 15.5788C91.2643 15.1683 91.2972 14.6758 91.3628 14.1011C91.4285 13.5264 91.5517 12.9353 91.7323 12.3278C91.9293 11.7203 92.192 11.1209 92.5204 10.5299C92.8652 9.92233 93.3085 9.38049 93.8504 8.90433C94.3922 8.42817 95.049 8.04231 95.8207 7.74676C96.5924 7.45121 97.5119 7.30344 98.5792 7.30344C99.433 7.30344 100.155 7.40195 100.747 7.59899C101.338 7.79602 101.814 8.06694 102.175 8.41175C102.536 8.74014 102.799 9.12599 102.963 9.56931C103.127 10.0126 103.209 10.4888 103.209 10.9978C103.209 11.7531 103.053 12.3935 102.741 12.9189C102.446 13.4443 102.052 13.8876 101.559 14.2488C101.083 14.5937 100.549 14.8646 99.9584 15.0616C99.3673 15.2586 98.7844 15.4146 98.2097 15.5296C97.635 15.6281 97.1014 15.6938 96.6088 15.7266C96.1327 15.743 95.7632 15.7512 95.5005 15.7512C95.5005 16.0632 95.5416 16.3752 95.6237 16.6871C95.7222 16.9827 95.8617 17.2454 96.0424 17.4753C96.223 17.7051 96.4611 17.894 96.7566 18.0417C97.0522 18.1895 97.4134 18.2634 97.8403 18.2634C98.2672 18.2634 98.5956 18.1977 98.8254 18.0664C99.0717 17.9186 99.2688 17.7626 99.4165 17.5984C99.5643 17.4178 99.6875 17.2618 99.786 17.1305C99.9009 16.9827 100.049 16.9088 100.229 16.9088C100.311 16.9088 100.451 16.9334 100.648 16.9827C100.861 17.0155 101.075 17.0976 101.288 17.229C101.502 17.3603 101.691 17.5409 101.855 17.7708C102.019 18.0007 102.101 18.2962 102.101 18.6575C102.101 19.1336 101.953 19.5441 101.658 19.8889C101.362 20.2337 100.976 20.5128 100.5 20.7263C100.04 20.9398 99.5233 21.0957 98.9486 21.1943C98.3739 21.2928 97.8157 21.342 97.2738 21.342ZM97.7418 10.5791C97.3805 10.5791 97.0686 10.6858 96.8059 10.8993C96.5596 11.0963 96.3461 11.3508 96.1655 11.6628C96.0013 11.9748 95.87 12.3196 95.7714 12.6972C95.6893 13.0749 95.6237 13.4361 95.5744 13.7809C96.5924 13.7645 97.4134 13.5921 98.0373 13.2637C98.6777 12.9353 98.9979 12.4673 98.9979 11.8598C98.9979 11.5314 98.8911 11.2359 98.6777 10.9732C98.4806 10.7105 98.1687 10.5791 97.7418 10.5791Z" fill="inherit"/>
<path d="M109.742 10.8747C109.692 11.4986 109.635 12.1143 109.569 12.7218C109.52 13.3294 109.471 13.904 109.422 14.4459C109.372 14.9877 109.331 15.4721 109.298 15.899C109.282 16.3259 109.274 16.6543 109.274 16.8842C109.274 17.3111 109.323 17.5984 109.422 17.7462C109.52 17.8775 109.684 17.9432 109.914 17.9432C110.095 17.9432 110.251 17.9104 110.382 17.8447C110.513 17.779 110.637 17.7051 110.752 17.623C110.866 17.5409 110.965 17.467 111.047 17.4014C111.146 17.3357 111.252 17.3029 111.367 17.3029C111.482 17.3029 111.589 17.3685 111.687 17.4999C111.786 17.6312 111.835 17.935 111.835 18.4112C111.835 19.3142 111.589 20.0285 111.096 20.5539C110.604 21.0793 109.758 21.342 108.56 21.342C107.377 21.342 106.499 21.0711 105.924 20.5293C105.366 19.971 105.087 19.1254 105.087 17.9925C105.087 17.7462 105.095 17.4588 105.111 17.1305C105.144 16.7856 105.185 16.3423 105.235 15.8005C105.284 15.2586 105.341 14.5937 105.407 13.8055C105.489 13.0174 105.571 12.0404 105.653 10.8747H104.348C104.217 10.8747 104.134 10.85 104.102 10.8008C104.085 10.7351 104.077 10.6448 104.077 10.5299L104.151 9.27377C104.167 9.06031 104.192 8.85507 104.225 8.65804C104.274 8.44459 104.356 8.25576 104.471 8.09157C104.602 7.92737 104.783 7.79602 105.013 7.6975C105.243 7.59899 105.547 7.54973 105.924 7.54973C106.039 7.25418 106.171 6.90116 106.318 6.49068C106.466 6.08019 106.614 5.68613 106.762 5.30848C106.909 4.91441 107.049 4.58603 107.18 4.32331C107.328 4.0606 107.459 3.92925 107.574 3.92925H108.289C108.978 3.92925 109.454 4.1427 109.717 4.56961C109.98 4.99651 110.111 5.50551 110.111 6.09661C110.111 6.425 110.087 6.90937 110.037 7.54973H112.623C112.886 7.54973 113.017 7.66466 113.017 7.89454L112.919 9.22451C112.886 9.71709 112.746 10.1194 112.5 10.4313C112.27 10.7269 111.786 10.8747 111.047 10.8747H109.742Z" fill="inherit"/>
<path d="M114.776 7.91917C114.776 7.77139 114.801 7.67287 114.85 7.62362C114.899 7.57436 115.055 7.54973 115.318 7.54973H116.205C116.615 7.54973 116.976 7.6072 117.288 7.72213C117.617 7.82065 117.888 7.952 118.101 8.1162C118.331 8.26397 118.503 8.43638 118.618 8.63341C118.733 8.83044 118.791 9.02747 118.791 9.22451C118.791 9.32302 118.774 9.59394 118.742 10.0373C118.725 10.4642 118.692 11.006 118.643 11.6628C118.594 12.3031 118.536 13.0174 118.471 13.8055C118.421 14.5772 118.364 15.3654 118.298 16.1699C118.249 16.958 118.192 17.7216 118.126 18.4604C118.077 19.1993 118.036 19.8397 118.003 20.3815C117.921 21.5473 117.732 22.4832 117.436 23.1892C117.157 23.9117 116.812 24.4699 116.402 24.864C115.991 25.2745 115.532 25.5454 115.023 25.6768C114.514 25.8245 113.988 25.8984 113.446 25.8984C112.97 25.8984 112.494 25.8492 112.018 25.7506C111.525 25.6685 111.082 25.5372 110.688 25.3566C110.294 25.176 109.974 24.9461 109.727 24.667C109.481 24.3878 109.358 24.0594 109.358 23.6818C109.358 23.2877 109.481 22.9758 109.727 22.7459C109.957 22.516 110.236 22.3436 110.565 22.2287C110.877 22.1137 111.189 22.0399 111.501 22.007C111.796 21.9742 112.018 21.9578 112.166 21.9578C112.215 21.9578 112.264 21.9988 112.313 22.0809C112.346 22.1794 112.395 22.2779 112.461 22.3765C112.51 22.4914 112.584 22.5899 112.683 22.672C112.781 22.7705 112.921 22.8198 113.101 22.8198C113.299 22.8198 113.446 22.7377 113.545 22.5735C113.66 22.4257 113.75 22.1712 113.816 21.81C113.881 21.4488 113.939 20.9726 113.988 20.3815C114.037 19.774 114.087 19.0187 114.136 18.1156L114.776 7.91917ZM114.53 4.64349C114.53 3.98672 114.768 3.46951 115.244 3.09186C115.72 2.71421 116.361 2.52539 117.165 2.52539C117.871 2.52539 118.38 2.67316 118.692 2.96871C119.021 3.24784 119.185 3.62549 119.185 4.10165C119.185 4.70917 118.955 5.21817 118.495 5.62866C118.052 6.02272 117.395 6.21976 116.525 6.21976C115.195 6.21976 114.53 5.69433 114.53 4.64349Z" fill="inherit"/>
<path d="M126.187 21.342C125.054 21.342 124.11 21.186 123.355 20.8741C122.616 20.5457 122.025 20.1024 121.581 19.5441C121.138 18.9858 120.826 18.3373 120.645 17.5984C120.465 16.8431 120.374 16.0386 120.374 15.1848C120.374 14.1996 120.489 13.2391 120.719 12.3031C120.965 11.3508 121.376 10.5052 121.951 9.76635C122.525 9.02748 123.281 8.43638 124.217 7.99305C125.169 7.53331 126.351 7.30344 127.763 7.30344C129.832 7.30344 131.31 7.81244 132.196 8.83044C133.099 9.83203 133.551 11.2441 133.551 13.0666C133.551 13.5757 133.51 14.1421 133.428 14.7661C133.362 15.3736 133.223 15.9811 133.009 16.5886C132.812 17.1961 132.533 17.7872 132.172 18.3619C131.827 18.9366 131.384 19.4456 130.842 19.8889C130.3 20.3322 129.643 20.6853 128.871 20.948C128.116 21.2107 127.221 21.342 126.187 21.342ZM127.344 10.5791C126.72 10.5791 126.22 10.7433 125.842 11.0717C125.481 11.3837 125.202 11.7695 125.005 12.2293C124.824 12.6726 124.701 13.1487 124.635 13.6577C124.586 14.1503 124.561 14.569 124.561 14.9138C124.561 15.9975 124.734 16.7939 125.079 17.3029C125.423 17.8119 125.916 18.0664 126.556 18.0664C127.131 18.0664 127.599 17.8857 127.96 17.5245C128.338 17.1633 128.625 16.7282 128.822 16.2192C129.036 15.7102 129.175 15.1765 129.241 14.6183C129.323 14.06 129.364 13.5921 129.364 13.2144C129.364 12.3935 129.208 11.7531 128.896 11.2934C128.601 10.8172 128.083 10.5791 127.344 10.5791Z" fill="inherit"/>
<path d="M139.848 9.81561C139.848 10.1933 139.823 10.6448 139.774 11.1702C139.724 11.6792 139.667 12.1964 139.601 12.7218C139.552 13.2308 139.503 13.7152 139.453 14.175C139.404 14.6183 139.38 14.9631 139.38 15.2094C139.38 15.8333 139.527 16.3013 139.823 16.6132C140.135 16.9088 140.513 17.0566 140.956 17.0566C141.728 17.0566 142.343 16.6543 142.803 15.8497C143.263 15.0452 143.55 13.9779 143.665 12.648L144.059 8.04231C144.076 7.8617 144.133 7.73855 144.232 7.67287C144.346 7.59078 144.47 7.54973 144.601 7.54973H145.488C145.832 7.54973 146.153 7.58257 146.448 7.64825C146.76 7.6975 147.031 7.80423 147.261 7.96842C147.491 8.1162 147.671 8.32144 147.803 8.58415C147.934 8.84686 148 9.18346 148 9.59395C148 9.75814 147.983 10.0701 147.951 10.5299C147.934 10.9732 147.893 11.6217 147.827 12.4755C147.778 13.3129 147.704 14.3802 147.606 15.6773C147.507 16.958 147.392 18.5261 147.261 20.3815C147.179 21.4652 146.933 22.36 146.522 23.0661C146.128 23.7885 145.627 24.355 145.02 24.7655C144.412 25.1924 143.731 25.4879 142.975 25.6521C142.22 25.8163 141.448 25.8984 140.66 25.8984C139.823 25.8984 139.051 25.8245 138.345 25.6768C137.656 25.529 137.056 25.3237 136.547 25.061C136.038 24.7983 135.636 24.4946 135.34 24.1497C135.061 23.8049 134.922 23.4355 134.922 23.0414C134.922 22.7295 134.987 22.4585 135.119 22.2287C135.267 21.9988 135.455 21.81 135.685 21.6622C135.915 21.5144 136.178 21.3995 136.473 21.3174C136.785 21.2517 137.105 21.2189 137.434 21.2189C137.598 21.2189 137.713 21.301 137.779 21.4652C137.861 21.6294 137.976 21.81 138.123 22.007C138.288 22.2205 138.542 22.4093 138.887 22.5735C139.232 22.7377 139.749 22.8198 140.439 22.8198C141.046 22.8198 141.539 22.672 141.916 22.3765C142.294 22.0809 142.581 21.7033 142.778 21.2435C142.992 20.7838 143.131 20.283 143.197 19.7411C143.263 19.1993 143.296 18.6821 143.296 18.1895C143.033 18.6492 142.737 19.0269 142.409 19.3224C142.097 19.6016 141.769 19.8232 141.424 19.9874C141.079 20.1352 140.734 20.2337 140.389 20.283C140.045 20.3322 139.716 20.3569 139.404 20.3569C138.797 20.3569 138.238 20.2748 137.729 20.1106C137.237 19.9464 136.81 19.6837 136.449 19.3224C136.087 18.9448 135.808 18.4604 135.611 17.8693C135.414 17.2782 135.316 16.564 135.316 15.7266C135.316 15.4146 135.332 15.0041 135.365 14.4951C135.398 13.9697 135.439 13.3868 135.488 12.7465C135.537 12.0897 135.587 11.3837 135.636 10.6284C135.702 9.87307 135.767 9.10136 135.833 8.31323C135.866 7.80423 136.096 7.54973 136.523 7.54973H137.311C137.836 7.54973 138.263 7.59899 138.591 7.6975C138.92 7.79602 139.174 7.94379 139.355 8.14083C139.552 8.32144 139.683 8.55952 139.749 8.85507C139.815 9.1342 139.848 9.45438 139.848 9.81561Z" fill="inherit"/>
<path fill-rule="evenodd" clip-rule="evenodd" d="M1.20167 3.28187L25.651 0.279871C26.401 0.187776 27.0837 0.721154 27.1758 1.4712L29.4025 19.6063C29.4946 20.3563 28.9612 21.039 28.2112 21.1311L24.3477 21.6055C24.0404 21.6432 23.7549 21.7841 23.538 22.005L18.3215 27.3193C17.5188 28.137 16.1266 27.6648 15.9869 26.5275L15.6825 24.048C15.5904 23.2979 14.9077 22.7645 14.1577 22.8566L3.76188 24.1331C3.01183 24.2252 2.32914 23.6918 2.23704 22.9417L0.0103393 4.8067C-0.0817552 4.05665 0.451623 3.37396 1.20167 3.28187ZM13.244 12.5191C12.8495 12.1487 12.3886 11.9959 11.8613 12.0606C11.8106 11.648 11.876 11.2327 12.0574 10.8149C12.2617 10.3942 12.4831 10.0179 12.7216 9.68615C12.9573 9.33143 13.1757 9.02538 13.3768 8.76798C13.6008 8.50778 13.7072 8.33183 13.6959 8.24013C13.6565 7.91919 13.5311 7.65535 13.3195 7.44863C13.1281 7.21616 12.7687 7.1323 12.2415 7.19704C11.5767 7.27866 10.9716 7.56239 10.4262 8.04821C9.88083 8.53404 9.40966 9.15037 9.01269 9.89722C8.63864 10.6412 8.36755 11.4657 8.19942 12.3706C8.03129 13.2755 8.00352 14.1865 8.11611 15.1034C8.19492 15.7453 8.32844 16.2641 8.51665 16.6599C8.70486 17.0556 8.92907 17.3655 9.18928 17.5896C9.44667 17.7907 9.73141 17.9302 10.0435 18.0082C10.3757 18.0605 10.7252 18.0642 11.092 18.0191C11.6422 17.9516 12.1123 17.8008 12.5025 17.5667C12.8898 17.3097 13.2013 17.0039 13.4369 16.6491C13.6726 16.2944 13.8339 15.9023 13.9208 15.4728C14.0077 15.0432 14.023 14.5992 13.9667 14.1407C13.8766 13.4072 13.6357 12.8666 13.244 12.5191ZM20.7403 11.5987C20.3458 11.2283 19.8849 11.0754 19.3576 11.1402C19.3069 10.7275 19.3723 10.3123 19.5537 9.89443C19.758 9.47375 19.9794 9.09752 20.2179 8.76572C20.4536 8.411 20.672 8.10495 20.8731 7.84756C21.0971 7.58735 21.2035 7.4114 21.1922 7.3197C21.1528 6.99876 21.0273 6.73492 20.8158 6.5282C20.6244 6.29573 20.265 6.21187 19.7378 6.27661C19.073 6.35823 18.4679 6.64196 17.9225 7.12778C17.3771 7.61361 16.906 8.22994 16.509 8.97679C16.1349 9.72081 15.8638 10.5453 15.6957 11.4502C15.5276 12.3551 15.4998 13.266 15.6124 14.183C15.6912 14.8249 15.8247 15.3437 16.0129 15.7395C16.2012 16.1352 16.4254 16.4451 16.6856 16.6691C16.943 16.8702 17.2277 17.0098 17.5398 17.0878C17.872 17.1401 18.2215 17.1437 18.5883 17.0987C19.1385 17.0311 19.6086 16.8803 19.9987 16.6463C20.3861 16.3893 20.6976 16.0834 20.9332 15.7287C21.1689 15.374 21.3302 14.9819 21.4171 14.5523C21.504 14.1228 21.5193 13.6788 21.463 13.2203C21.3729 12.4867 21.132 11.9462 20.7403 11.5987Z" fill="inherit"/>
</svg>
