<svg width="20" height="21" viewBox="0 0 20 21" fill="none" xmlns="http://www.w3.org/2000/svg">
<g clip-path="url(#clip0_23262_1200)">
<path d="M16.2493 11.6147C16.2509 11.8696 16.1734 12.1186 16.0276 12.3277C15.8819 12.5367 15.6749 12.6954 15.4352 12.7819L11.4001 14.2663L9.91568 18.2983C9.82777 18.5371 9.66874 18.7432 9.46002 18.8888C9.25131 19.0344 9.00296 19.1125 8.74849 19.1125C8.49402 19.1125 8.24567 19.0344 8.03696 18.8888C7.82824 18.7432 7.6692 18.5371 7.5813 18.2983L6.09302 14.271L2.06021 12.7866C1.8214 12.6987 1.61531 12.5397 1.46973 12.331C1.32415 12.1223 1.24609 11.8739 1.24609 11.6194C1.24609 11.365 1.32415 11.1166 1.46973 10.9079C1.61531 10.6992 1.8214 10.5401 2.06021 10.4522L6.09536 8.96787L7.57974 4.93584C7.66764 4.69703 7.82668 4.49094 8.03539 4.34536C8.24411 4.19978 8.49246 4.12173 8.74693 4.12173C9.0014 4.12173 9.24974 4.19978 9.45846 4.34536C9.66717 4.49094 9.82621 4.69703 9.91411 4.93584L11.3985 8.971L15.4305 10.4554C15.6698 10.5407 15.8769 10.6979 16.0235 10.9054C16.17 11.1129 16.2489 11.3607 16.2493 11.6147ZM11.8743 4.11475H13.1243V5.36475C13.1243 5.53051 13.1901 5.68948 13.3073 5.80669C13.4245 5.9239 13.5835 5.98975 13.7493 5.98975C13.915 5.98975 14.074 5.9239 14.1912 5.80669C14.3084 5.68948 14.3743 5.53051 14.3743 5.36475V4.11475H15.6243C15.79 4.11475 15.949 4.0489 16.0662 3.93169C16.1834 3.81448 16.2493 3.65551 16.2493 3.48975C16.2493 3.32399 16.1834 3.16501 16.0662 3.0478C15.949 2.93059 15.79 2.86475 15.6243 2.86475H14.3743V1.61475C14.3743 1.44899 14.3084 1.29001 14.1912 1.1728C14.074 1.05559 13.915 0.989746 13.7493 0.989746C13.5835 0.989746 13.4245 1.05559 13.3073 1.1728C13.1901 1.29001 13.1243 1.44899 13.1243 1.61475V2.86475H11.8743C11.7085 2.86475 11.5495 2.93059 11.4323 3.0478C11.3151 3.16501 11.2493 3.32399 11.2493 3.48975C11.2493 3.65551 11.3151 3.81448 11.4323 3.93169C11.5495 4.0489 11.7085 4.11475 11.8743 4.11475ZM18.7493 6.61475H18.1243V5.98975C18.1243 5.82399 18.0584 5.66501 17.9412 5.5478C17.824 5.43059 17.665 5.36475 17.4993 5.36475C17.3335 5.36475 17.1745 5.43059 17.0573 5.5478C16.9401 5.66501 16.8743 5.82399 16.8743 5.98975V6.61475H16.2493C16.0835 6.61475 15.9245 6.68059 15.8073 6.7978C15.6901 6.91501 15.6243 7.07399 15.6243 7.23975C15.6243 7.40551 15.6901 7.56448 15.8073 7.68169C15.9245 7.7989 16.0835 7.86475 16.2493 7.86475H16.8743V8.48975C16.8743 8.65551 16.9401 8.81448 17.0573 8.93169C17.1745 9.0489 17.3335 9.11475 17.4993 9.11475C17.665 9.11475 17.824 9.0489 17.9412 8.93169C18.0584 8.81448 18.1243 8.65551 18.1243 8.48975V7.86475H18.7493C18.915 7.86475 19.074 7.7989 19.1912 7.68169C19.3084 7.56448 19.3743 7.40551 19.3743 7.23975C19.3743 7.07399 19.3084 6.91501 19.1912 6.7978C19.074 6.68059 18.915 6.61475 18.7493 6.61475Z" fill="#FF4405"/>
</g>
<defs>
<clipPath id="clip0_23262_1200">
<rect width="20" height="20" fill="white" transform="translate(0 0.364746)"/>
</clipPath>
</defs>
</svg>
