<svg width="32" height="32" viewBox="0 0 32 32" fill="none" xmlns="http://www.w3.org/2000/svg">
<path d="M2.66602 15.9999H7.84197C8.75558 15.9999 9.59077 16.5161 9.99935 17.3333C10.4079 18.1504 11.2431 18.6666 12.1567 18.6666H19.842C20.7556 18.6666 21.5908 18.1504 21.9993 17.3333C22.4079 16.5161 23.2431 15.9999 24.1567 15.9999H29.3327M2.66602 15.9999V11.7333C2.66602 9.49304 2.66602 8.37294 3.10199 7.51729C3.48548 6.76464 4.09741 6.15272 4.85005 5.76923C5.7057 5.33325 6.82581 5.33325 9.06602 5.33325H22.9327C25.1729 5.33325 26.293 5.33325 27.1486 5.76923C27.9013 6.15272 28.5132 6.76464 28.8967 7.51729C29.3327 8.37294 29.3327 9.49304 29.3327 11.7333V15.9999M2.66602 15.9999V20.2666C2.66602 22.5068 2.66602 23.6269 3.10199 24.4825C3.48548 25.2352 4.09741 25.8471 4.85005 26.2306C5.7057 26.6666 6.82581 26.6666 9.06602 26.6666H22.9327C25.1729 26.6666 26.293 26.6666 27.1486 26.2306C27.9013 25.8471 28.5132 25.2352 28.8967 24.4825C29.3327 23.6269 29.3327 22.5068 29.3327 20.2666V15.9999" stroke="#FF4F18" stroke-width="2" stroke-linecap="round" stroke-linejoin="round"/>
</svg>
