<svg width="32" height="32" viewBox="0 0 32 32" fill="none" xmlns="http://www.w3.org/2000/svg">
<path d="M17.3331 18.6667L13.3331 14.6667M20.0136 4.66675V2.66675M25.2661 6.74763L26.6803 5.33341M25.2661 17.3334L26.6803 18.7476M14.6803 6.74763L13.2661 5.33341M27.3469 12.0001H29.3469M8.17496 27.8249L20.4913 15.5086C21.0193 14.9806 21.2833 14.7165 21.3823 14.4121C21.4693 14.1443 21.4693 13.8558 21.3823 13.5881C21.2833 13.2836 21.0193 13.0196 20.4913 12.4916L19.5083 11.5086C18.9803 10.9806 18.7163 10.7165 18.4118 10.6176C18.144 10.5306 17.8556 10.5306 17.5878 10.6176C17.2833 10.7165 17.0193 10.9806 16.4913 11.5086L4.17496 23.8249C3.64694 24.3529 3.38293 24.617 3.28401 24.9214C3.197 25.1892 3.197 25.4776 3.28401 25.7454C3.38293 26.0499 3.64694 26.3139 4.17496 26.8419L5.15797 27.8249C5.68599 28.3529 5.95 28.617 6.25444 28.7159C6.52223 28.8029 6.8107 28.8029 7.07849 28.7159C7.38293 28.617 7.64694 28.3529 8.17496 27.8249Z" stroke="#FF4F18" stroke-width="2" stroke-linecap="round" stroke-linejoin="round"/>
</svg>
